<?xml version="1.0" encoding="utf-8"?>
<!-- Generator: Adobe Illustrator 16.0.0, SVG Export Plug-In . SVG Version: 6.00 Build 0)  -->
<!DOCTYPE svg PUBLIC "-//W3C//DTD SVG 1.0//EN" "http://www.w3.org/TR/2001/REC-SVG-20010904/DTD/svg10.dtd">
<svg version="1.0" id="Layer_1" xmlns="http://www.w3.org/2000/svg" xmlns:xlink="http://www.w3.org/1999/xlink" x="0px" y="0px"
	 width="3000px" height="3000px" viewBox="0 0 3000 3000" style="enable-background:new 0 0 3000 3000;" xml:space="preserve">
<style type="text/css">
<![CDATA[
	.st0{fill:#034EA1;}
	.st1{fill:#74BDE9;}
	.st2{fill-rule:evenodd;clip-rule:evenodd;fill:#034EA1;}
]]>
</style>
<g>
	<path class="st1" d="M2809.355,1501.362c0,722.777-585.891,1308.722-1308.694,1308.722
		c-722.773,0-1308.712-585.944-1308.712-1308.722c0-722.769,585.938-1308.685,1308.712-1308.685
		C2223.465,192.678,2809.355,778.594,2809.355,1501.362"/>
	<path class="st0" d="M1500.661,2822.25c-728.333,0-1320.879-592.549-1320.879-1320.888
		c0-728.319,592.546-1320.853,1320.879-1320.853c728.331,0,1320.86,592.533,1320.86,1320.853
		C2821.521,2229.701,2228.992,2822.25,1500.661,2822.25z M1500.661,204.846c-714.918,0-1296.544,581.613-1296.544,1296.517
		c0,714.922,581.626,1296.556,1296.544,1296.556c714.907,0,1296.525-581.634,1296.525-1296.556
		C2797.187,786.459,2215.568,204.846,1500.661,204.846z"/>
	<path class="st0" d="M524.789,934.938c-5.229,8.323-16.292,11.657-25.649,14.408c4.866,9.684,5.609,20.11,6.583,27.009
		c19.529-0.979,34.643-4.425,55.871-8.673l2.74,14.662l-76.655,6.898c-8.021,0.611-22.523,0.451-28.934-3.577
		c-4.517-2.834-5.188-10.232-2.657-14.271c3.155-5.002,13.481-6.132,15.126-8.752c0.453-0.701-0.451-1.93-2.102-2.976L433.91,937.54
		l-21.674,34.484l-27.45-0.653l90.565-144.143l27.466,0.671l-14.955,23.776l107.27,67.404l-29.178,13.178l-32.089-21.815
		C533.123,920.603,529.862,926.848,524.789,934.938 M447.658,915.665l41.612,26.148c6.488-5.549,9.566-9.917,13.445-16.106
		c2.4-3.798,9.686-25.436,8.021-29.119l-36.629-23.024L447.658,915.665z"/>
	<path class="st0" d="M635.807,970.858c-8.917,12.271-31.405,18.824-46.858,7.582c-13.832-10.076-16.232-27.793-5.158-43.003
		c9.59-13.178,32.559-24.234,87.545-28.678l1.07,11.887c-54.643,3.994-63.187,8.556-69.294,16.964
		c-6.606,9.078-4.622,25.44,4.457,32.06c4.996,3.642,9.778,4.688,12.262,1.294c1.984-2.738-0.57-20.211-3.262-27.037l23.872-0.34
		C642.854,953.059,641.428,963.136,635.807,970.858"/>
	<path class="st0" d="M621.762,797.707c-4.759,5.91-15.346,11.447-30.698,15.334c-5.816,27.402-4.178,37.014,3.928,43.521
		c9.844,7.907,22.138,6.985,27.584,0.195c7.939-9.845,5.135-17.146,2.728-19.077c-1.751-1.403-10.171-1.693-12.802-3.798
		c-2.834-2.298-3.257-9.844-0.446-13.338c4.231-5.257,27.313-13.361,33.242-8.603c6.339,5.098,8.247,13.48,7.664,19.143
		l47.359,7.433l-2.264,14.045l-47.222-11.656c-0.808,3.684-4.723,11.704-9.832,18.045c-12.852,15.986-52.795,25.303-69.651,11.764
		c-10.277-8.276-13.457-17.313-6.023-48.09c-25.893,7.997-37.217,8.633-47.502,0.356c-13.361-10.736-17.021-31.708-5.769-45.731
		c14.788-18.369,50.281-22.629,67.363-8.904c8.744,7.046,13.456,19.119,11.585,34.898c0.92-0.694,3.464-2.971,5.229-5.155
		c7.558-9.406,17.183-29.441,17.586-47.857l22.328,17.947C633.396,777.861,628.81,788.948,621.762,797.707 M556.628,777.411
		c-6.792-5.448-13.849-4.297-18.253,1.193c-7.734,9.626-5.446,23.362,1.106,28.644c7.67,6.154,18.411,7.593,27.014,4.052
		C569.746,796.963,564.951,784.106,556.628,777.411"/>
	<path class="st0" d="M677.118,763.996c2.798,2.775,2.412,6.35-0.767,9.542c-5.365,5.364-42.706,5.051-49.872-2.092
		c-2.181-2.193-2.597-6.161,0.583-9.333l5.756-5.782l-36.627-36.48l-19.833,19.91l-26.634-6.721l107.477-107.864l26.636,6.689
		l-19.831,19.91l89.76,89.429l-31.369,6.416l-22.5-24.389l-31.721,31.846L677.118,763.996z M614.431,701.54l37.014,36.877
		l31.334-31.454l-37.014-36.877L614.431,701.54z"/>
	<path class="st0" d="M812.621,666.248c2.704,3.238,4.171,8.955,5.038,19.203l-0.22,37.46l-13.373-4.206
		c0.243-7.155-0.143-22.548-2.484-25.347c-1.801-2.168-0.179-2.412-18.686-4.89l4.344-30.312
		C807.708,661.211,808.498,661.28,812.621,666.248"/>
	<path class="st0" d="M982.567,487.86c-1.997,0.429-4.355,1.367-5.841,2.151c-12.399,6.613-19.808,21.371-16.149,46.776
		l-25.184-2.495c-1.112-3.857-1.8-11.753-1.766-15.271c-5.502-3.125-12.909-3.309-19.344,0.125
		c-11.657,6.203-14.152,21.205-7.302,34.103c8.443,15.85,28.204,21.877,59.015,27.759l-6.279,15.096
		c-49.831-12.911-69.662-26.843-78.104-42.706c-9.893-18.598-3.214-41.887,12.655-50.331c9.916-5.281,22.238-4.205,40.431,4.236
		c2.168-13.243,8.687-23.716,15.638-27.412c5.936-3.167,18.727-4.248,26.331-1.926L961.6,449.704l-117.222,62.444l-23.486-14.223
		l164.567-87.647l23.487,14.211l-24.544,13.07l59.55,111.787l-31.87-3.083L982.567,487.86z"/>
	<path class="st0" d="M1104.542,499.066c-22.435,8.952-53.502-9.797-60.072-26.221c-3.969-9.915-2.127-18.202,9.357-28.838
		l-0.22-0.523c-17.883,1.396-29.041-2.311-35.6-18.75l-12.268,4.889l-21.794-16.694l87.391-34.893l21.792,16.7l-45.386,18.133
		c-2.614,4.063-0.314,9.797,0.927,12.934c1.361,3.381,7.493,9.696,16.268,10.428c4.016-2.811,10.231-6.191,14.93-8.069
		c3.845,2.098,16.986,12.27,17.919,14.615c0.939,2.348-0.06,3.648-3.172,4.902c-25.311,10.1-31.894,22.417-28.144,31.798
		c1.775,4.438,9.647,6.738,21.388,2.056c12.268-4.902,26.136-20.125,38.417-44.681l9.987,25.038
		C1127.76,480.72,1118.89,493.339,1104.542,499.066"/>
	<polygon class="st0" points="1134.783,496.839 1102.587,392.704 1083.106,399.121 1062.383,381.095 1137.884,356.236 
		1158.608,374.263 1126.329,384.88 1165.934,505.209 	"/>
	<path class="st0" d="M1167.758,503.984c16.962-5.063,37.127,6.524,41.612,21.599c3.934,13.188-3.992,32.854-25.541,39.265
		c-22.875,6.814-51.251-0.85-84.42-16.755l5.489-10.135c25.856,13.98,50.762,18.87,62.872,15.256
		c17.497-5.204,26.611-22.862,24.193-30.942c-1.843-6.191-5.039-9.054-8.349-8.359c-3.772,1.123-10.587,11.657-15.72,21.988
		l-22.939-11.063C1150.468,513.83,1158.341,506.784,1167.758,503.984"/>
	<path class="st0" d="M1377.403,422.94c-5.294,0.719-14.444-0.036-22.935-2.021l-13.314-16.914c3.09-0.132,7.385,0.147,11.283-0.376
		c6.41-0.867,8.977-4.891,7.629-14.918l-7.082-52.871l-38.697,5.187l9.857,73.482c0.886,6.664,3.785,13.366,26.962,23.581
		l67.421,29.479c7.51,3.25,13.654,8.93,14.664,16.452c0.868,6.398-4.354,18.156-7.968,22.887l-25.346-13.606
		c1.581-3.042,3.25-9.5,2.954-11.728c-0.559-4.171-3.625-8.003-8.758-10.438c-7.871-3.761-76.886-32.477-82.655-35.382
		c-9.417-4.687-11.77-9.47-12.5-15.043l-10.231-76.257l-20.04,2.691l-17.046-21.514l146.389-19.624l17.063,21.508l-36.469,4.897
		l9.513,70.961C1389.998,417.575,1386.31,421.746,1377.403,422.94"/>
	<path class="st0" d="M1476.855,426.842c-25.565,0.427-51.851-25.844-52.225-48.024c-0.314-19.955,18.496-37.406,45.177-37.84
		c7.594-0.135,17.729,1.386,22.268,4.403c4.551,3.018,14.247,11.294,21.975,19.868l-0.646-38.483l-102.802,1.7l-14.432-23.374
		l159.262-2.625l14.444,23.373l-30.626,0.5l2.103,126.692l-26.984-17.253l0.982-25.869
		C1500.655,421.116,1488.643,426.654,1476.855,426.842 M1514.623,382.665l-0.06-3.37c-11.39-9.648-26.087-15.026-39.859-14.801
		c-14.896,0.245-25.922,13.083-25.679,27.968c0.161,9.545,6.44,15.06,14.301,14.94
		C1475.125,407.208,1500.727,392.729,1514.623,382.665"/>
	<polygon class="st0" points="1554.182,284.454 1537.912,266.492 1555.564,250.492 1571.838,268.441 	"/>
	<path class="st0" d="M1721.832,436.896c-0.814,3.845-4.01,5.459-8.418,4.551c-7.422-1.557-27.521-33.039-25.454-42.932
		c0.632-3.03,3.733-5.538,8.142-4.611l7.965,1.67l10.602-50.595l-27.496-5.758l-8.924-25.974l149.045,31.198l8.911,25.98
		l-27.503-5.758l-25.95,124.014l-22.501-22.804l8.164-32.16l-43.986-9.197L1721.832,436.896z M1739.969,350.271l-10.709,51.142
		l43.437,9.103l10.708-51.142L1739.969,350.271z"/>
	<path class="st0" d="M1862.215,486.333c-24.641-7.766-38.66-38.071-33.52-54.429c3.381-10.705,12.322-17.604,31.706-16.51
		l0.154-0.536c-14.087-8.554-22.812-25.737-18.689-38.861c4.638-14.733,20.649-23.534,39.415-17.634
		c13.14,4.123,26.262,18.555,20.941,35.446c-3.786,12.044-18.435,17.45-36.929,11.632c-0.597,1.873,0.776,4.077,3.657,6.155
		c2.693,1.741,6.549,3.542,10.821,4.88c4.829,1.521,9.854,4.283,11.727,4.864l5.587,26.202c-3.127-1.277-8.041-3.421-12.324-4.758
		c-28.936-9.103-39.74-1.908-41.676,4.259c-1.605,5.087,1.423,11.343,18.569,16.744c13.944,4.366,39.955-0.685,61.107-11.704
		l-9.03,28.665C1898.939,487.576,1877.749,491.224,1862.215,486.333 M1870.865,398.955c8.92,2.518,17.033-0.814,19.402-8.325
		c2.111-6.689-2.184-13.634-9.146-15.827c-6.436-2.033-15.62,0.975-18.498,10.077c-1.162,3.761-1.37,7.224-0.361,9.596
		C1865.049,396.839,1867.918,398.028,1870.865,398.955"/>
	<path class="st0" d="M1946.951,513.947c-22.467-9.647-33.904-42.063-26.162-77.87c7.154,1.848,25.954,2.892,31.978,2.416
		c3.126-0.184,7.663-2.215,8.663-4.526c1.326-3.103,2.664-10.474,1.229-17.823l-40.518-17.404l-3.592-27.217l144.518,62.082
		l3.602,27.217l-25.803-11.079l-50.004,116.396l-17.533-26.796l11.484-23.188C1972.502,518.5,1956.248,517.941,1946.951,513.947
		 M1977.369,422.47c-0.047,16.488-0.789,33.889-2.787,38.536c-2.102,4.902-7.836,6.118-26.123,3.148
		c-7.996-1.301-12.572,0.113-14.906,5.525c-2.998,6.974-0.453,13.874,11.934,19.19c9.555,4.1,36.593,3.785,50.89-1.07l20.747-48.261
		L1977.369,422.47z"/>
	<path class="st0" d="M2064.682,563.547c-1.982,3.405-5.536,3.926-9.43,1.664c-6.548-3.821-15.686-40.033-10.586-48.767
		c1.557-2.679,5.308-4.064,9.191-1.801l7.029,4.099l26.038-44.643l-24.276-14.152l-0.254-27.46l131.537,76.678l0.242,27.462
		l-24.266-14.146l-63.805,109.433l-14.139-28.715l17.913-27.937l-38.833-22.63L2064.682,563.547z M2109.243,487.106l-26.31,45.13
		l38.328,22.364l26.318-45.143L2109.243,487.106z"/>
	<path class="st0" d="M2291.425,579.737l104.001,94.788l-5.516,26.89l-34.676-31.584c-0.741,13.75-3.84,28.401-7.625,32.559
		c-4.353,4.772-14.64,6.049-24.936,2.74c6.463,23.362,5.514,33.146-3.941,43.521c-13.813,15.15-37.186,12.862-52.13-0.767
		c-18.263-16.642-23.544-40.454-13.323-85.853l12.01,1.42c-7.931,34.959-4.305,48.902,8.572,60.648
		c11.217,10.207,26.645,8.699,33.834,0.814c4.166-4.563,5.502-14.372,1.414-25.31c-7.896-3.018-17.716-8.93-21.248-12.144
		c-3.11-2.834-4.248-5.769-4.6-9.126c-0.229-5.156,1.145-18.347,3.602-21.049c2.463-2.704,4.467-2.4,7.581,0.451l15.563,14.188
		c11.877,7.396,25.725,10.137,30.439,4.949c1.914-2.08,2.936-9.88,2.345-18.394l-56.878-51.851L2291.425,579.737z"/>
	<path class="st0" d="M2384.051,862.229l2.111-1.419c-15.299-3.192-37.613-15.905-44.549-24.01
		c-15.707-18.377-13.885-54.28-0.867-65.414c4.069-3.469,10.41-5.562,15.092-4.396c0.51-14.111,5.477-29.064,15.076-37.283
		c9.815-8.394,19.823-6.213,30.575,6.393l20.993,24.539l10.459-8.941l-45.443-53.164l8.822-25.998l114.608,134.089l-8.811,25.997
		l-18.253-21.352l-96.295,82.316L2384.051,862.229z M2416.895,788.699l-23.163-27.123c-8.776-10.243-15.812-11.984-21.36-7.236
		c-3.405,2.918-6.107,9.27-3.939,14.831c9.464,3.724,22.025,13.676,33.705,27.341c-1.923,9.406-4.43,15.988-9.979,20.736
		c-2.14,1.822-8.261,1.141-17.385-9.543c-2.753-3.185-6.837-9.297-9.458-14.081c-8.188-4.813-17.363-4.74-20.781-1.824
		c-4.475,3.834-3.664,11.271,5.648,22.161c8.384,9.822,32.16,21.634,57.114,28.763l59.782-51.09l-19.531-22.855l-22.416,19.166
		C2421.715,790.88,2418.721,790.845,2416.895,788.699"/>
	<path class="st0" d="M2454.041,924.262c-3.287,2.14-6.721,1.022-9.178-2.738c-4.148-6.352,3.931-42.832,12.398-48.355
		c2.596-1.677,6.558-1.254,9.018,2.506l4.439,6.826l43.293-28.251l-15.354-23.521l12.082-24.662l83.219,127.489l-12.085,24.679
		l-15.358-23.532l-106.077,69.247l0.232-32.014l28.518-16.949l-24.565-37.64L2454.041,924.262z M2528.141,875.894l-43.756,28.561
		l24.25,37.156l43.76-28.541L2528.141,875.894z"/>
	<polygon class="st0" points="509.514,1727.398 519.334,1773.261 416.014,1818.218 416.116,1818.646 528.811,1817.599 
		538.584,1863.238 385.606,1895.973 379.547,1867.693 501.677,1841.563 501.594,1841.13 373.635,1840.056 368.502,1816.065 
		484.798,1762.706 484.714,1762.282 362.584,1788.431 356.524,1760.14 	"/>
	<path class="st0" d="M508.723,1890.241l9.297,28.737l-112.083,36.251l-9.291-28.738L508.723,1890.241z M547.051,1877.83
		l9.297,28.743l-24.579,7.969l-9.31-28.769L547.051,1877.83z"/>
	<path class="st0" d="M505.729,2005.845c10.552-4.285,21.085-10.928,16.803-21.491c-5.608-13.781-18.686-11.079-43.854-0.849
		c-26.984,10.947-37.157,17.935-32.046,30.516c3.795,9.32,13.433,10.363,31.091,3.212l10.891,26.783
		c-28.62,11.616-49.517,6.168-61.547-23.472c-11.377-28.009-3.398-47.339,40.443-65.136c44.839-18.218,64.927-4.854,75.407,20.92
		c10.461,25.753-0.536,45.844-26.309,56.313L505.729,2005.845z"/>
	<path class="st0" d="M562.337,2028.857l13.03,25.81l-14.064,7.107l0.197,0.393c12.934,0.337,23.421,4.597,29.053,15.745
		c0.801,1.568,1.485,3.416,2.079,5.084l-25.803,13.04c-1.193-2.831-2.471-5.863-3.844-8.612
		c-4.746-9.367-14.973-17.461-29.047-10.354l-63.15,31.904l-13.629-26.978L562.337,2028.857z"/>
	<path class="st0" d="M619.25,2126.57c19.653,30.604,6.486,50.551-28.389,72.042c-34.287,21.153-58.949,22.467-77.105-6.987
		c-19.643-30.604-6.476-50.563,28.387-72.042C576.441,2098.427,601.093,2097.113,619.25,2126.57 M531.275,2180.816
		c6.436,10.438,18.763,7.472,43.735-7.919c24.977-15.408,33.152-25.08,26.729-35.518c-7.825-12.669-23.231-4.726-43.746,7.918
		C537.497,2157.941,523.452,2168.147,531.275,2180.816"/>
	<path class="st0" d="M600.184,2253.097l-23.071,16.685c-18.81,13.593-35.333,18.774-50.833,1.068l12.422-8.977
		c5.555,5.438,14.124,3.843,20.693-0.915l2.834-2.042l-6.666-9.226l27.68-20.027L600.184,2253.097z"/>
	<path class="st0" d="M673.701,2320.354l-3.379,3.126c-10.784,9.941-14.884,19.399-3.59,31.622
		c6.531,7.082,17.278,9.69,26.938,0.779c10.451-9.658,9.417-18.541,0.618-38.723c-11.924-27.142-12.167-44.512,6.999-62.195
		c22.364-20.634,46.432-17.495,66.633,4.387c19.018,20.605,23.966,43.75,1.906,64.093l-3.208,2.972l-20.504-22.208
		c10.79-9.967,13.654-19.456,5.472-28.298c-9.648-10.463-18.774-7.107-25.523-0.88c-7.083,6.536-9.517,12.632-4.628,26.318
		l8.764,24.995c8.466,24.374,3.773,37.049-10.22,49.969c-24.311,22.429-48.926,17.722-72.097-7.396
		c-24.211-26.236-21.49-47.816-0.244-67.429l4.676-4.299L673.701,2320.354z"/>
	<path class="st0" d="M781.215,2336.004l22.208,18.507l-7.717,9.238l0.344,0.289c12.762-3.344,22.785-0.682,32.546,7.459
		c10.6,8.836,13.993,20.493,8.799,31.842l0.339,0.283c11.521-6.643,23.996-4.506,34.936,4.594
		c15.292,12.751,14.549,28.38-0.025,45.862l-54.82,65.764l-23.202-19.33l52.701-63.244c6.303-7.572,7.29-13.875,0.73-19.355
		c-7.396-6.152-16.333-5.046-25.008,5.392l-49.633,59.537l-23.214-19.33l52.712-63.257c6.315-7.572,7.283-13.876,0.724-19.355
		c-7.396-6.152-16.313-5.033-25,5.392l-49.622,59.549l-23.214-19.343L781.215,2336.004z"/>
	<path class="st0" d="M888.747,2468.262l1.521-2.395c14.598-22.912,35.239-20.663,54.446-8.421
		c30.301,19.312,28.026,35.519,16.612,53.428l-33.319,52.291c-5.875,9.231-8.039,13.838-9.096,21.203l-24.389-15.528
		c0.344-4.211,2.074-8.553,3.445-12.349l-0.361-0.232c-12.501,6.573-21.36,4.575-33.551-3.198
		c-17.74-11.306-14.354-30.453-5.888-43.757c11.9-18.651,24.288-21.398,44.899-15.025l16.879,5.304
		c8.883,2.803,13.344,1.489,17.58-5.159c4.831-7.586,4.457-14.322-4.064-19.721c-7.741-4.958-15.113-2.375-20.051,5.386
		l-1.764,2.778L888.747,2468.262z M923.046,2517.14c-5.158,0.34-10.463-0.691-14.081-1.961c-11.751-4.38-19.007-1.973-24.65,6.895
		c-4.818,7.572-6.061,15.616,0.778,19.971c6.838,4.361,18.53,5.574,25.482-5.329L923.046,2517.14z"/>
	<polygon class="st0" points="1015.672,2458.665 1042.295,2472.962 968.313,2610.705 941.703,2596.402 	"/>
	<polygon class="st0" points="1059.186,2481.396 1086.492,2494.354 1019.408,2635.679 992.091,2622.708 	"/>
	<path class="st0" d="M1194.013,2646.004c5.197-5.486,10.451-14.844,12.375-20.901l25.893,8.188
		c-5.085,16.101-16.172,29.348-29.19,39.252l10.914,33.777l-31.964-10.111l-4.723-14.127c-10.35,6.599-25.869,7.667-40.478,3.048
		c-37.806-11.972-37.419-40.791-32.125-57.494c5.489-17.345,21.465-27.914,43.68-33.514l-2.774-9.395
		c-4.449-14.95-4.206-21.549-1.497-30.102c6.162-19.438,25.578-26.381,47.934-19.312c25.476,8.063,32.825,25.558,27.325,42.89
		c-4.682,14.831-16.685,23.666-38.12,30.447L1194.013,2646.004z M1156.778,2616.292c-14.052,5.209-20.344,11.261-23.236,20.455
		c-2.983,9.395,1.093,21.932,14.675,26.242c8.14,2.577,15.387,1.427,22.398-3.255L1156.778,2616.292z M1171.406,2580.252l1.96,6.127
		l6.886-2.865c8.406-3.324,12.898-8.095,14.549-13.316c2.586-8.15-1.455-14.259-9.185-16.71c-7.105-2.243-14.128,0.358-16.57,8.095
		C1167.781,2565.553,1168.512,2571.976,1171.406,2580.252"/>
	<polygon class="st0" points="1311.727,2568.582 1358.243,2574.144 1367.32,2686.379 1367.76,2686.43 1403.253,2579.517 
		1449.566,2585.053 1431.012,2740.298 1402.303,2736.86 1417.127,2612.942 1416.687,2612.886 1374.259,2733.518 1349.913,2730.595 
		1337.109,2603.365 1336.682,2603.309 1321.863,2727.252 1293.173,2723.82 	"/>
	<path class="st0" d="M1490.365,2686.223l0.149,9.407c0.231,13.781,4.171,27.305,15.33,27.122
		c10.074-0.163,14.102-7.898,15.623-22.365l27.135-0.439c-0.646,27.38-13.529,42.914-41.99,43.367
		c-43.767,0.723-46.078-32.974-46.541-62.302c-0.511-31.521,5.145-60.957,45.861-61.616c35.236-0.56,43.506,22.949,44.097,59.077
		l0.095,6.774L1490.365,2686.223z M1520.945,2667.766c-0.949-17.936-3.299-27.971-15.779-27.77
		c-12.038,0.182-15.348,12.731-15.163,23.672l0.071,4.594L1520.945,2667.766z"/>
	<path class="st0" d="M1633.219,2720.302l-0.439,0.037c-5.424,11.576-13.248,16.986-25.012,18.181
		c-24.646,2.507-37.813-14.441-42.227-58.041c-4.414-43.594,5.087-62.836,29.711-65.33c11.344-1.15,19.435,2.67,26.711,11.38
		l0.425-0.037l-4.986-49.256l30.063-3.054l15.779,155.641l-28.763,2.903L1633.219,2720.302z M1615.221,2714.426
		c13.297-1.345,14.592-14.699,11.996-40.193c-2.576-25.495-6.517-38.321-19.82-36.971c-13.064,1.326-14.354,14.661-11.764,40.175
		C1598.213,2702.944,1602.149,2715.739,1615.221,2714.426"/>
	<path class="st0" d="M1663.275,2569.116l29.737-5.329l4.562,25.438l-29.748,5.316L1663.275,2569.116z M1670.383,2608.782
		l29.734-5.329l20.785,115.975l-29.75,5.316L1670.383,2608.782z"/>
	<path class="st0" d="M1803.967,2685.852l-0.415,0.106c-3.233,12.826-12.509,20.676-24.813,23.887
		c-18.221,4.731-31.631-2.42-37.469-24.898l-22.014-84.585l29.259-7.616l20.455,78.659c2.985,11.449,7.943,14.912,16.649,12.656
		c9.977-2.589,13.879-10.181,10.567-22.899l-19.683-75.693l29.25-7.616l29.678,114.07l-27.984,7.29L1803.967,2685.852z"/>
	<path class="st0" d="M1822.621,2574.295l26.783-10.866l4.521,11.161l0.405-0.157c3.063-12.826,10.146-20.417,21.929-25.193
		c12.785-5.178,24.675-2.671,32.244,7.259l0.396-0.177c-0.422-13.284,7.326-23.289,20.518-28.631
		c18.469-7.478,31.879,0.547,40.447,21.649l32.16,79.363l-28.016,11.337l-30.93-76.31c-3.684-9.124-8.779-12.971-16.717-9.753
		c-8.917,3.613-12.135,11.997-7.035,24.59l29.118,71.835l-28.009,11.343l-30.918-76.29c-3.715-9.137-8.811-12.971-16.717-9.766
		c-8.93,3.62-12.146,12.016-7.047,24.603l29.105,71.822l-27.984,11.368L1822.621,2574.295z"/>
	<polygon class="st0" points="2071.456,2406.017 2085.263,2427.879 2038.006,2457.704 2057.659,2488.842 2102.133,2460.771 
		2115.926,2482.633 2071.466,2510.705 2093.932,2546.273 2143.023,2515.279 2156.836,2537.143 2081.046,2584.99 1997.522,2452.689 	
		"/>
	<path class="st0" d="M2103.992,2430.217l22.766-17.81l8.502,10.865l0.355-0.276c-2.156-13.046,3.223-23.949,13.24-31.772
		c14.814-11.595,29.967-10.395,44.278,7.899l53.853,68.83l-23.801,18.614l-50.066-63.986c-7.303-9.325-13.244-10.5-20.311-4.971
		c-8.101,6.348-8.679,14.862-0.575,25.206l48.185,61.579l-23.799,18.613L2103.992,2430.217z"/>
	<path class="st0" d="M2169.404,2333.638l22.209-20.502l22.875,24.798l12.885-11.89l13.957,15.126l-12.876,11.89l43.22,46.836
		c6.243,6.762,10.212,8.163,16.646,2.225c1.775-1.634,3.394-3.419,4.701-4.914l14.258,15.44c-4.379,4.933-8.445,9.577-13.596,14.327
		c-17.385,16.044-25.51,13.7-41.695-3.839l-45.752-49.583l-11.268,10.4l-13.967-15.126l11.277-10.4L2169.404,2333.638z"/>
	<path class="st0" d="M2297.778,2344.487l6.909,6.41c10.124,9.37,22.607,15.868,30.199,7.677c6.85-7.388,4.053-15.645-5.342-26.755
		l18.463-19.921c19.318,19.424,21.648,39.486,2.287,60.353c-29.787,32.125-55.709,10.477-77.232-9.477
		c-23.129-21.441-40.477-45.887-12.785-75.756c23.971-25.859,46.676-15.563,73.18,8.999l4.974,4.625L2297.778,2344.487z
		 M2305.615,2309.623c-13.618-11.727-22.498-16.974-30.979-7.812c-8.204,8.836-1.426,19.884,6.607,27.33l3.369,3.123
		L2305.615,2309.623z"/>
	<path class="st0" d="M2300.267,2246.562l17.879-22.718l12.38,9.747l0.289-0.353c-5.178-11.852-5.747-23.169,1.964-32.991
		c1.087-1.37,2.485-2.784,3.735-4.022l22.721,17.86c-2.07,2.287-4.27,4.738-6.174,7.132c-6.479,8.276-9.486,20.952,2.891,30.686
		l55.603,43.723l-18.689,23.748L2300.267,2246.562z"/>
	<path class="st0" d="M2344.222,2190.67l15.864-24.163l10.432,6.85l0.245-0.377c-5.549-11.487-4.839-20.964,1.649-30.855
		c13.584-20.688,35.02-20.235,71.637,3.796c36.609,24.019,45.551,43.512,31.986,64.199c-6.256,9.508-14.299,13.41-25.648,13.536
		l-0.242,0.384l41.382,27.147l-16.591,25.263L2344.222,2190.67z M2451.226,2205.626c7.198-10.984-2.335-20.393-23.754-34.45
		c-21.427-14.051-33.847-19.063-41.055-8.075c-7.337,11.167,2.206,20.568,23.628,34.629
		C2431.465,2211.781,2443.886,2216.787,2451.226,2205.626"/>
	<path class="st0" d="M2401.65,2100.321l13.725-25.426l13.885,7.479l0.197-0.387c-7.107-10.806-9.615-21.853-3.691-32.831
		c0.839-1.546,1.973-3.174,2.994-4.613l25.43,13.725c-1.629,2.593-3.391,5.373-4.843,8.069c-4.989,9.263-5.791,22.271,8.081,29.756
		l62.252,33.579l-14.348,26.598L2401.65,2100.321z"/>
	<path class="st0" d="M2398.809,2019.017l12.764-27.393l23.428,10.903l-12.77,27.393L2398.809,2019.017z M2435.34,2036.025
		l12.747-27.39l106.79,49.739l-12.77,27.393L2435.34,2036.025z"/>
	<path class="st0" d="M2538.396,1998.536l3.689,1.402c9.624,3.682,17.906,0.986,21.583-8.629c3.286-8.59,1.179-15.962-7.616-19.323
		c-7.17-2.74-12.245,0.716-16.393,5.464l-14.733,17.103c-11.472,13.436-24.141,17.753-39.694,11.82
		c-18.205-6.969-28.763-24.128-17.662-53.189c9.766-25.577,25.844-33.263,45.687-25.684l4.506,1.729l-9.702,25.369
		c-11.045-4.235-17.826-3.063-21.342,6.146c-2.74,7.151-0.986,14.859,6.79,17.822c5.316,2.033,10.916,0.905,17.58-7.347
		l12.217-14.793c12.744-15.527,24.241-18.645,40.797-12.316c23.138,8.842,28.027,30.394,18.96,54.145
		c-12.119,31.71-29.398,35.191-50.473,27.135l-3.88-1.482L2538.396,1998.536z"/>
	<path class="st0" d="M2557.633,1894.219l9.074,2.508c13.301,3.701,27.396,3.735,30.371-7.032
		c2.69-9.722-3.588-15.773-17.045-21.316l7.255-26.186c26.089,8.37,37.353,25.124,29.746,52.58
		c-11.692,42.204-44.665,34.89-72.96,27.04c-30.393-8.401-57.054-22.151-46.163-61.418c9.404-33.985,34.312-35.276,69.151-25.624
		l6.548,1.81L2557.633,1894.219z M2548.58,1859.649c-17.485-4.157-27.782-4.738-31.129,7.303
		c-3.207,11.613,7.885,18.312,18.438,21.247l4.437,1.219L2548.58,1859.649z"/>
	<path class="st0" d="M2597.072,1798.549l3.868,0.697c10.136,1.801,17.774-2.4,19.595-12.537
		c1.614-9.037-1.842-15.874-11.111-17.533c-7.535-1.348-11.877,2.998-15.078,8.421l-11.252,19.582
		c-8.754,15.327-20.38,21.935-36.772,19.016c-19.179-3.419-32.753-18.3-27.305-48.903c4.795-26.953,19.142-37.511,40.056-33.784
		l4.748,0.849l-4.773,26.729c-11.645-2.08-18.066,0.33-19.808,10.026c-1.335,7.548,1.813,14.787,10.001,16.245
		c5.605,0.999,10.888-1.182,15.893-10.514l9.219-16.816c9.603-17.634,20.314-22.85,37.769-19.738
		c24.366,4.345,33.208,24.605,28.757,49.613c-5.977,33.413-22.269,40.068-44.486,36.109l-4.088-0.723L2597.072,1798.549z"/>
	<path class="st2" d="M1269.758,747.412L1269.758,747.412c20.451-3.717,34.175-21.329,57.15-17.68
		c9.72,16.102,36.319,21.514,54.5,26.129c5.643-14.787,19.725-17.307,16.926-44.357c-8.02-18.43,6.25-27.58,41.091-30.724
		c30.722-9.671,31.162-2.567,43.84-1.544c12.887,0.976,25.809-8.431,34.287-1.498l23.534-0.998
		c45.617-2.264,43.402,17.377,53.881,33.865c7.346,11.543,0.898,27.501,9.769,37.621c10.222,5.233,14.884,11.549,13.885,18.958
		c10.903-5.096,21.828-5.91,32.719-2.298c4.843-34.383,70.638-45.279,92.233,17.183c30.117,3.588,42.462,13.859,43.182,37.073
		c59.515,66.305-17.182,68.699-26.184,102.231c-38.512,48.624-38.72-20.099-49.242,1.719
		c44.131,65.805,21.451,142.727-36.006,225.959c1.804,28.091,1.492,56.176-3.456,84.272l-5.175,23.836
		c10.724,19.154,12.998,57.945,32.25,57.494c11.092-6.132,21.1,0.802,29.92,20.842c8.549,2.495,11.414,11.574,8.627,27.183
		c11.668,15.707,22.294,32.539,31.707,50.446l-1.313,17.528c14.877,10.848,13.982,30.146-2.728,35.855
		c-2.507,45.374-26.399,69.988-64.947,80.439c-1.075,20.863-14.812,38.221-39.126,38.221h-312.066
		c-31.804,0-45.155-16.279-40.663-39.145c-46.722-1.024-68.556-22.718-65.551-65.21c-17.567-14.732-19.321-29.538-5.292-44.328
		c-0.327-13.189,0.207-26.403,6.66-39.592c-3.274-9.928,1.836-14.968,7.806-17.51c17.296-10.891,22.138-21.815,14.616-32.719
		c16.719-11.312,16.548-38.12,29.886-41.208c46.823,15.209,24.335-59.615,36.503-89.389c-14.201-23.664-18.24-49.265-12.108-81.656
		c-72.033-77.428-73.519-153.619-35.262-216.307c-34.092,56.347-51.797-26.004-83.482-43.163
		c-16.926-17.948-12.411-35.88,13.554-53.853c-8.248-32.962,25.749-33.171,38.558-49.771
		C1256.896,761.726,1263.733,752.1,1269.758,747.412 M1360.37,1560.358L1360.37,1560.358c3.029,0,5.489,3.111,5.489,6.963
		c0,3.834-2.507,6.944-5.501,6.944c-3.054,0-5.489-3.11-5.489-6.944C1354.868,1563.47,1357.339,1560.358,1360.37,1560.358
		 M1352.23,1354.977L1352.23,1354.977c3.029,0,5.489,3.14,5.489,6.936c-0.042,3.861-2.495,6.975-5.525,6.975
		c-3.03,0-5.491-3.113-5.491-6.975C1346.739,1358.116,1349.2,1354.977,1352.23,1354.977 M1377.794,1560.604L1377.794,1560.604
		c3.03,0,5.473,3.123,5.473,6.981c0,3.799-2.49,6.913-5.484,6.913c-3.042,0-5.538-3.114-5.514-6.913
		C1372.269,1563.727,1374.753,1560.604,1377.794,1560.604 M1369.644,1355.175L1369.644,1355.175c3.042,0,5.483,3.136,5.483,6.98
		c0,3.819-2.482,6.939-5.525,6.939c-2.999,0-5.483-3.12-5.483-6.939C1364.154,1358.311,1366.613,1355.175,1369.644,1355.175
		 M1396.848,1560.183L1396.848,1560.183c3.043,0,5.501,3.123,5.501,6.976c0,3.82-2.507,6.938-5.525,6.938
		c-3.029,0-5.5-3.117-5.5-6.938C1391.324,1563.306,1393.83,1560.183,1396.848,1560.183 M1388.721,1354.77L1388.721,1354.77
		c3.031,0,5.491,3.102,5.491,6.963c-0.042,3.821-2.507,6.958-5.527,6.958c-3.029,0-5.501-3.137-5.501-6.958
		C1383.183,1357.871,1385.69,1354.77,1388.721,1354.77 M1415.32,1559.837L1415.32,1559.837c3.042,0,5.502,3.11,5.502,6.957
		c-0.03,3.836-2.507,6.95-5.525,6.95c-3.007,0-5.502-3.114-5.479-6.95C1409.818,1562.947,1412.29,1559.837,1415.32,1559.837
		 M1407.193,1354.455L1407.193,1354.455c3.029,0,5.496,3.136,5.472,6.934c0,3.861-2.478,6.976-5.521,6.976
		c-2.994,0-5.489-3.114-5.489-6.976C1401.691,1357.591,1404.175,1354.455,1407.193,1354.455 M1432.366,1560.428L1432.366,1560.428
		c3.054,0,5.513,3.143,5.513,6.988c-0.035,3.808-2.507,6.956-5.513,6.956c-3.054,0-5.525-3.148-5.489-6.956
		C1426.877,1563.57,1429.348,1560.428,1432.366,1560.428 M1424.25,1355.049L1424.25,1355.049c3.007,0,5.489,3.12,5.455,6.963
		c0,3.834-2.473,6.97-5.491,6.97c-3.029,0-5.501-3.136-5.501-6.97C1418.712,1358.169,1421.22,1355.049,1424.25,1355.049
		 M1450.374,1560.554L1450.374,1560.554c3.031,0,5.515,3.123,5.491,6.956c0,3.847-2.484,6.988-5.501,6.988
		c-3.043,0-5.502-3.142-5.502-6.988C1444.861,1563.677,1447.332,1560.554,1450.374,1560.554 M1442.234,1355.175L1442.234,1355.175
		c3.018,0,5.491,3.136,5.491,6.98c0,3.797-2.473,6.939-5.501,6.939c-3.031,0-5.515-3.143-5.515-6.939
		C1436.721,1358.311,1439.205,1355.175,1442.234,1355.175 M1467.419,1560.265L1467.419,1560.265c3.042,0,5.515,3.136,5.479,6.943
		c0,3.847-2.448,6.988-5.489,6.988c-3.043,0-5.472-3.142-5.472-6.988C1461.937,1563.4,1464.419,1560.265,1467.419,1560.265
		 M1457.308,1351.982L1457.308,1351.982c3.018,0,5.502,3.144,5.502,6.965c0,3.832-2.484,6.969-5.502,6.969
		c-3.043,0-5.508-3.137-5.496-6.969C1451.813,1355.126,1454.284,1351.982,1457.308,1351.982 M1485.416,1560.358L1485.416,1560.358
		c3.03,0,5.525,3.167,5.478,6.988c0,3.853-2.448,6.969-5.514,6.969c-3.018,0-5.471-3.116-5.471-6.969
		C1479.92,1563.525,1482.385,1560.358,1485.416,1560.358 M1574.316,1360.735L1574.316,1360.735c3.017,0,5.499,3.137,5.49,6.979
		c0,3.821-2.496,6.935-5.516,6.935c-3.041,0-5.501-3.113-5.501-6.935C1568.814,1363.872,1571.297,1360.735,1574.316,1360.735
		 M1504.839,1560.98L1504.839,1560.98c3.054,0,5.501,3.114,5.501,6.957c0,3.833-2.473,6.956-5.526,6.956
		c-3.004,0-5.466-3.123-5.466-6.956C1499.348,1564.095,1501.832,1560.98,1504.839,1560.98 M1593.738,1361.353L1593.738,1361.353
		c3.02,0,5.482,3.101,5.482,6.94c0,3.79-2.463,6.934-5.536,6.934c-2.979,0-5.474-3.144-5.474-6.934
		C1588.249,1364.453,1590.73,1361.353,1593.738,1361.353 M1523.346,1560.183L1523.346,1560.183c3.016,0,5.489,3.123,5.489,7.001
		c-0.022,3.795-2.495,6.935-5.526,6.935c-3.029,0-5.5-3.14-5.486-6.935C1517.822,1563.306,1520.305,1560.183,1523.346,1560.183
		 M1612.223,1360.563L1612.223,1360.563c3.017,0,5.506,3.112,5.506,6.932c-0.048,3.863-2.489,6.953-5.506,6.953
		c-3.041,0-5.492-3.09-5.492-6.953C1606.73,1363.676,1609.203,1360.563,1612.223,1360.563 M1541.814,1560.309L1541.814,1560.309
		c3.02,0,5.492,3.139,5.492,6.981c0,3.814-2.473,6.95-5.523,6.95c-3.031,0-5.479-3.136-5.479-6.95
		C1536.304,1563.447,1538.786,1560.309,1541.814,1560.309 M1630.717,1360.711L1630.717,1360.711c3.011,0,5.483,3.114,5.483,6.935
		c-0.022,3.809-2.473,6.921-5.536,6.921c-3.02,0-5.482-3.112-5.482-6.921C1625.182,1363.825,1627.645,1360.711,1630.717,1360.711
		 M1559.326,1560.032L1559.326,1560.032c3.031,0,5.488,3.123,5.488,6.931c0,3.847-2.481,6.913-5.498,6.913
		c-3.01,0-5.518-3.066-5.48-6.913C1553.836,1563.155,1556.307,1560.032,1559.326,1560.032 M1648.225,1360.365L1648.225,1360.365
		c3.042,0,5.461,3.114,5.461,6.976c0,3.798-2.469,6.935-5.485,6.935s-5.486-3.137-5.486-6.935
		C1642.714,1363.479,1645.209,1360.365,1648.225,1360.365 M1577.811,1560.604L1577.811,1560.604c3.029,0,5.523,3.123,5.471,6.981
		c0,3.799-2.441,6.913-5.471,6.913c-3.066,0-5.492-3.114-5.492-6.913C1572.318,1563.727,1574.791,1560.604,1577.811,1560.604
		 M1666.72,1360.961L1666.72,1360.961c3.013,0,5.461,3.119,5.461,6.952c0,3.843-2.47,6.957-5.511,6.957
		c-3.02,0-5.486-3.114-5.486-6.957C1661.184,1364.08,1663.678,1360.961,1666.72,1360.961 M1595.818,1560.265L1595.818,1560.265
		c3.029,0,5.502,3.136,5.502,6.956c0,3.853-2.473,6.976-5.537,6.976c-3.02,0-5.492-3.123-5.492-6.976
		C1590.316,1563.4,1592.786,1560.265,1595.818,1560.265 M1684.677,1360.61L1684.677,1360.61c3.069,0,5.536,3.143,5.536,6.987
		c-0.021,3.808-2.467,6.945-5.536,6.945c-3.045,0-5.483-3.138-5.483-6.945C1679.193,1363.753,1681.688,1360.61,1684.677,1360.61
		 M1612.863,1559.96L1612.863,1559.96c3.043,0,5.512,3.113,5.512,6.959c-0.044,3.827-2.494,6.932-5.512,6.932
		c-3.041,0-5.535-3.104-5.514-6.932C1607.35,1563.073,1609.822,1559.96,1612.863,1559.96 M1701.751,1360.308L1701.751,1360.308
		c3.066,0,5.515,3.125,5.515,6.933c-0.031,3.845-2.495,6.939-5.537,6.939c-3.041,0-5.479-3.095-5.479-6.939
		C1696.249,1363.433,1698.731,1360.308,1701.751,1360.308 M1629.92,1560.076L1629.92,1560.076c3.02,0,5.514,3.129,5.492,6.987
		c0,3.79-2.473,6.935-5.515,6.935s-5.509-3.145-5.509-6.935C1624.389,1563.205,1626.855,1560.076,1629.92,1560.076
		 M1648.417,1560.208L1648.417,1560.208c2.994,0,5.489,3.12,5.489,6.976c-0.047,3.82-2.495,6.963-5.537,6.963
		c-2.997,0-5.485-3.143-5.485-6.963C1642.884,1563.328,1645.372,1560.208,1648.417,1560.208 M1438.789,726.269L1438.789,726.269
		c35.047-15.918,70.053-20.373,105.049-8.129c8.673,10.545,28.285,8.965,26.039,31.686c9.512,15.305,13.457,28.495,5.056,37.259
		c-17.675,9.814-16.849-8.034-25.278-12.05c55.801-44.75-49.284-70.013-31.719-7.177c-0.113,24.056-35.472,14.282-25.438-0.126
		c8.52-58.949-63.013-49.146-56.2-2.08c1.177,8.336,33.801,1.533,20.439,15.722c-8.336,5.905-12.204,12.935-11.61,21.016
		l-0.814,13.616c-7.616,17.153-2.917,26.754,14.116,28.751c6.946,9.939,2.08,16.623-9.464,10.295l-14.675-15.208l-0.95-31.823
		l5.401-20.342c-12.567-3.994-17.313-11.218-14.188-21.668C1430.566,753.985,1435.021,740.455,1438.789,726.269 M1454.729,738.359
		L1454.729,738.359c18.376-8.759,23.985-0.632,23.801,13.907C1469.939,741.222,1468.626,739.154,1454.729,738.359 M1521.485,796.208
		L1521.485,796.208c19.187,13.138,27.069,4.831,29.577-11.721C1539.275,795.549,1537.396,797.676,1521.485,796.208
		 M1456.286,816.843L1456.286,816.843c16.161,19.63,27.123,13.19,35.072-3.589C1475.358,821.465,1472.667,823.158,1456.286,816.843
		 M1506.711,814.205L1506.711,814.205c28.693,24.812,48.182,16.654,62.205-4.586C1540.527,820.022,1535.77,822.16,1506.711,814.205
		 M1462.714,748.204L1462.714,748.204c8.092,0,14.675,4.585,14.675,10.177c0,5.608-6.606,10.147-14.722,10.147
		c-8.092,0-14.688-4.539-14.688-10.147C1447.979,752.789,1454.611,748.204,1462.714,748.204 M1548.021,738.46L1548.021,738.46
		c-4.767,4.063-15.412,5.703-14.331,12.191l-1.182,6.279c26.938-23.082,36.955,14.759-1.693,13.564l-8.041-11.717
		C1524.474,735.745,1536.244,735.466,1548.021,738.46 M1473.594,778.32L1473.594,778.32c2.067,0,3.772,2.155,3.772,4.842
		c0,2.69-1.705,4.866-3.785,4.866c-2.11,0-3.761-2.176-3.761-4.866C1469.82,780.476,1471.495,778.32,1473.594,778.32
		 M1532.424,779.923L1532.424,779.923c2.541,0,4.6,1.997,4.6,4.48c-0.013,2.448-2.08,4.443-4.622,4.443
		c-2.546,0-4.619-1.995-4.619-4.443C1527.782,781.92,1529.855,779.923,1532.424,779.923 M1461.644,788.551L1461.644,788.551
		c1.521-0.826,4.588,1.599,6.863,5.478c2.3,3.844,2.917,7.665,1.433,8.483c-1.497,0.826-4.551-1.621-6.862-5.489
		C1460.824,793.19,1460.17,789.371,1461.644,788.551 M1453.624,800.042L1453.624,800.042c1.241-1.172,4.878,0.475,8.093,3.635
		c3.184,3.179,4.818,6.72,3.564,7.884c-1.207,1.172-4.831-0.499-8.056-3.635C1454.017,804.734,1452.394,801.193,1453.624,800.042
		 M1503.387,795.354L1503.387,795.354c6.941,0,12.598,3.296,12.598,7.303c0,4.039-10.404,0.854-14.793,6.51
		c-4.445,5.692-9.614-4.883-9.614-8.946C1491.625,796.208,1496.443,795.354,1503.387,795.354 M1502.492,830.313L1502.492,830.313
		c6.481,0,11.764,3.642,11.764,8.151c-0.035,4.444-5.329,8.103-11.777,8.103c-6.486,0-11.792-3.658-11.768-8.103
		C1490.71,833.954,1496.016,830.313,1502.492,830.313 M1468.857,841.678L1468.857,841.678h10.914
		c8.383,27.402,47.314,26.54,50.437,1.628c4.782-2.696,15.415-7.029,14.246,6.512c-7.676-11.354-7.151,21.663-9.269,26.029
		c-16.527,5.679-31.113,7.58-38.636-4.064C1469.077,881.282,1460.45,869.08,1468.857,841.678 M1572.432,722.203L1572.432,722.203
		c1.699-16.807,7.566-12.469,15.11-4.063c2.681,6.779,3.667,11.07-2.08,20.22l2.812,13.313c9.807,3.808,13.967,11.912,12.568,24.382
		c-7.565,18.08,13.398,35.312-2.563,59.1l-9.229-4.842c-2.661,5.71,10.599,30.092-7.99,17.158
		c-4.757-8.699-6.161-15.757-1.671-23.64c-0.535-8.129-1.104-16.286-1.65-24.437c15.707-12.169,14.658-27.646-3.189-46.349
		C1573.84,742.768,1575.631,732.493,1572.432,722.203 M1464.877,688.884L1464.877,688.884c3.272,0,5.906,4.735,5.906,10.553
		c-0.024,5.829-2.657,10.575-5.906,10.575c-3.233,0-5.901-4.746-5.901-10.575C1459.002,693.619,1461.681,688.884,1464.877,688.884
		 M1481.257,686.063L1481.257,686.063c3.249,0,5.863,4.748,5.863,10.6c0,5.84-2.649,10.553-5.911,10.553
		c-3.214,0-5.852-4.713-5.852-10.553C1475.358,690.81,1478.007,686.063,1481.257,686.063 M1499.301,687.316L1499.301,687.316
		c3.225,0,5.865,4.782,5.827,10.577c0,5.828-2.636,10.598-5.851,10.598c-3.262,0-5.899-4.77-5.899-10.598
		C1493.413,692.098,1496.039,687.316,1499.301,687.316 M1515.635,686.147L1515.635,686.147c3.23,0,5.898,4.735,5.889,10.562
		c0,5.818-2.684,10.577-5.889,10.577c-3.262,0-5.92-4.759-5.895-10.577C1509.753,690.882,1512.408,686.147,1515.635,686.147
		 M1534.33,683.995L1534.33,683.995c2.775,0,4.387,5.538,3.541,12.276c-0.838,6.754-3.761,12.245-6.529,12.245
		c-2.787,0-4.396-5.491-3.56-12.245C1528.605,689.533,1531.534,683.995,1534.33,683.995 M1567.209,818.097L1567.209,818.097
		l4.214,9.773c-1.599,14.331-13.69,13.944-16.019,21.947c-8.719,12.46-8.965,3.809-5.875-7.313
		C1557.683,839.794,1563.552,831.661,1567.209,818.097 M1435.467,696.989L1435.467,696.989c9.565-10,17.379,1.924,20.128,11.4
		l-19.504-2.847c-10.624-0.694-18.704,0.245-14.165,12.573c31.328,3.512,3.007,11.093-1.752,17.896l-2.448,25.215
		c2.471,22.76-8.479,44.725-22.69-4.82c7.313-22.221,16.255-13.569,14.295-0.891c13.268-1.824,3.054-23.165,4.551-34.786
		C1404.306,703.073,1411.489,695.165,1435.467,696.989 M1543.021,699.437L1543.021,699.437c22.739-21.395,45.41-14.615,27.742,0.814
		l-8.431,14.663c5.862,8.361,5.862,14.318,2.481,10.553c-6.777-4.859-12.756-8.08-20.373-12.121
		c21.19-11.991,25.577-28.002-0.326-10.748L1543.021,699.437z M1284.944,759.604L1284.944,759.604
		c35.916-26.035,54.119-19.297,49.568,28.424l-7.105,21.845c9.602,12.239,8.3,20.415-6.423,19.637
		c12.857,10.284,13.411,19.505,1.617,27.634l-20.379-15.359c6.862-8.104,20.45-11.323-4.563-19.475
		c40.788-12.537,4.647-67.944,0.826-49.367c15.37,17.544,15.062,30.747-0.95,39.642c-2.091,1.17,12.862-29.12-7.373-27.183
		C1264.987,787.851,1266.543,763.864,1284.944,759.604 M1223.505,825.422L1223.505,825.422c-3.601-18.144,3.968-28.69,22.744-31.685
		c3.172-6.886,14.442-11.668,21.424-6.279c10.32,7.949,33.598,14.406,3.749,21.708l-6.666,6.341
		c24.466,4.016,33.218,14.539,26.307,31.56c1.581,39.45-2.388,59.371-11.924,59.794c-12.143,15.139-20.978,18.328-26.367,9.601
		l26.022-24.905l-2.371-15.94c-8.14-8.581-18.797-22.014-1.777-20.843c4.808-7.105,13.861-24.739-3.225-9.102
		c-5.002-2.812-8.324-15.336-17.521-5.978c-7.142,2.738-12.607-1.033-13.82-9.732c15.098-9.172,17.336-22.708,4.147-27.524
		c-16.6,1.495-20.854,9.451-12.792,23.983c3.642,8.081-9.524,17.825-14.284,26.755c-9.297,10.925-18.637,6.416-12.785-11.045
		L1223.505,825.422z M1229.333,854.695L1229.333,854.695c5.596,4.343,23.848-13.284,14.301,0.833
		c-4.492,12.689-13.464,15.679-26.92,8.917L1229.333,854.695z M1245.226,894.496L1245.226,894.496c4.671,0,8.407,2.216,8.407,4.908
		c0,2.696-3.785,4.89-8.407,4.89c-4.646,0-8.383-2.193-8.383-4.89C1236.867,896.712,1240.64,894.496,1245.226,894.496
		 M1664.784,766.128L1664.784,766.128c9.275-24.152,49.343-25.75,44.523,2.4c24.665-0.797,24.04,16.256,0.804,17.057
		c-13.266,1.569-13.07,14.551-19.678,21.794c-21.169-0.5-18.046,13.665-20.723,22.934c-11.67,4.319-19.113-16.559-2.162-28.519
		c9.766-6.743,5.257-20.818-6.014-5.662C1659.248,786.157,1661.184,775.313,1664.784,766.128 M1716.811,796.185L1716.811,796.185
		c12.342-6.767,22.441-8.156,30.277-4.039l12.383,4.902c29.753,9.707-11.904,13.771-6.551,31.625
		c-14.291-0.803-16.785-17.059-27.727-9.727C1714.002,816.226,1705.316,810.272,1716.811,796.185 M1713.42,836.022L1713.42,836.022
		c3.602-11.123,14.018-12.49,31.072-4.088c5.638,8.649,23.915,9.173,16.928,25.976l23.512,4.919c6.41,5.459,3.551,10.95-3.459,9.126
		l-18.555-3.469c-11.438-33.332-41.74-2.668-50.365-15.431L1713.42,836.022z M1770.521,818.073L1770.521,818.073
		c-2.787-1.646-7.654,1.289-10.865,6.481c-3.248,5.164-3.626,10.7-0.826,12.315c2.762,1.646,7.65-1.301,10.891-6.457
		C1772.947,825.226,1773.318,819.664,1770.521,818.073 M1768.856,842.504L1768.856,842.504c8.968,1.075,9.549-24.64,19.349-6.481
		c-0.571,7.035,27.399,27.899-1.719,21.121L1768.856,842.504z M1771.326,876.637L1771.326,876.637c2.784,0,5.012,2.751,5.012,6.108
		c0,3.343-2.253,6.106-5.037,6.106c-2.773,0-5.039-2.764-5.039-6.106C1766.262,879.388,1768.549,876.637,1771.326,876.637
		 M1614.313,786.447L1614.313,786.447c7.303-8.419,17.951-13.606,31.939-15.454c19.893,7.327-7.303,13.791-11.793,19.493
		c-5.036-10.29-12.564,0.536-11.773,8.129C1615.711,798.615,1609.53,796.185,1614.313,786.447 M1622.742,814.929L1622.742,814.929
		c11.297-0.968,21.747-6.481,31.396-16.479c1.982-7.51-1.533-11.842-3.947-8.924c-4.609,5.732-17.23,8.543-21.84,8.703
		c0.452,2.965-6.957,8.99-11.12,6.304C1613.244,810.118,1611.746,813.135,1622.742,814.929 M1687.369,818.097L1687.369,818.097
		c13.467-12.993,16.823-10.818,10.1,6.512c-6.209,3.809-10.646,6.779-8.434,13.855c-3.639,10.249-3.953,13.243-10.941,1.621
		C1675.605,831.661,1678.669,824.353,1687.369,818.097 M1627.697,819.743L1627.697,819.743c8.129,1.093,16.258-1.053,24.396-6.489
		c0.267,6.489,0.523,12.168-4.224,19.507c-7.651-5.936-15.33,4.354-23.06,6.558l-6.385-0.854
		C1623.195,832.188,1627.123,826.794,1627.697,819.743 M1626.809,849.015L1626.809,849.015c18.274-23.859,51.813-5.436,21.014,7.327
		l-12.596,1.592c-3.381,8.96-8.469,13.022-12.615,2.447L1626.809,849.015z M1438.742,1024.218L1438.742,1024.218
		c2.809-29.468,37.091-30.186,19.494-4.039l-8.907,7.559c1.581,9.404-0.363,15.34-8.52,8.311L1438.742,1024.218z M1444.925,1054.822
		L1444.925,1054.822c6.809-22.72,33.789-18.155,15.875-0.302l-8.151,4.635c-0.243,7.557-2.716,11.946-7.956,5.244L1444.925,1054.822
		z M1630.717,880.131L1630.717,880.131c14.818-22.086,42.137-12.073,17.033,2.868l-10.224,3.168
		c-2.722,7.759-6.862,11.811-10.243,3.867L1630.717,880.131z M1639.453,904.294L1639.453,904.294
		c14.521-24.509,41.33-19.946,16.729-0.475l-10.078,5.062c-2.674,8.174-6.689,12.909-10.02,5.78L1639.453,904.294z M1413.36,971.264
		L1413.36,971.264c11.538-19.416,32.832-15.779,13.314-0.352l-7.997,4.041c-2.116,6.435-5.331,10.196-7.968,4.515L1413.36,971.264z
		 M1697.109,1061.477L1697.109,1061.477c3.646-25.576,25.69-30.198,12.744-5.805l-6.184,7.569c0.453,7.813-1.162,13.142-5.982,8.127
		L1697.109,1061.477z M1675.769,1093.869L1675.769,1093.869c3.249-22.695,22.841-26.855,11.306-5.163l-5.465,6.756
		c0.394,6.884-1.046,11.691-5.316,7.183L1675.769,1093.869z M1660.535,1080.578L1660.535,1080.578
		c2.948-20.622,20.748-24.406,10.275-4.67l-4.98,6.108c0.367,6.291-0.951,10.624-4.842,6.558L1660.535,1080.578z M1647.323,1061.15
		L1647.323,1061.15c2.923-20.615,20.747-24.383,10.271-4.688l-4.978,6.137c0.361,6.262-0.974,10.595-4.845,6.531L1647.323,1061.15z
		 M1628.024,1089.099L1628.024,1089.099c2.919-20.611,20.722-24.384,10.297-4.682l-5.015,6.107c0.352,6.315-0.961,10.621-4.83,6.582
		L1628.024,1089.099z M1640.596,1113.666L1640.596,1113.666c2.593-18.348,18.467-21.722,9.15-4.159l-4.443,5.448
		c0.279,5.609-0.848,9.428-4.308,5.84L1640.596,1113.666z M1658.35,1127.479L1658.35,1127.479
		c3.355-16.091,23.836-19.049,11.836-3.642l-5.729,4.782c0.374,4.942-1.121,8.312-5.536,5.109L1658.35,1127.479z M1450.826,1079.497
		L1450.826,1079.497c5.769-20.041,23.919-21.461,10.818-3.262l-5.756,5.419c-0.511,6.249-2.448,10.391-5.709,5.852
		L1450.826,1079.497z M1454.754,1100.499L1454.754,1100.499c9.321-20.968,29.23-19.969,12.292-2.043l-7.095,5.037
		c-1.544,6.78-4.199,10.963-7.104,5.587L1454.754,1100.499z M1463.76,1175.432L1463.76,1175.432
		c-13.387-50.549,19.612-67.327,16.06-17.533l-1.034,30.365c5.792,16.333,2.691,46.534-10.587,38.626L1463.76,1175.432z
		 M1478.602,1116.279L1478.602,1116.279c6.594-18.995,24.119-19.493,10.599-2.613l-5.863,4.912c-0.827,6.036-2.907,9.893-5.771,5.36
		L1478.602,1116.279z M1498.778,1131.209L1498.778,1131.209c-2.032-14.78,13.771-20.282,8.568-4.923l-3.273,5.036
		c1.787,4.308,1.58,7.492-2.984,5.308L1498.778,1131.209z M1485.262,1079.61L1485.262,1079.61
		c13.142-21.271,34.458-17.354,13.505-0.5l-8.396,4.487c-2.655,7.044-6.196,11.191-8.467,5.002L1485.262,1079.61z
		 M1683.209,1044.051L1683.209,1044.051c3.017-21.216,21.342-25.115,10.592-4.818l-5.156,6.279
		c0.391,6.488-0.974,10.927-4.939,6.743L1683.209,1044.051z M1667.002,1027.19L1667.002,1027.19
		c3.708-25.578,25.753-30.267,12.808-5.781l-6.177,7.557c0.427,7.849-1.245,13.165-6.015,8.128L1667.002,1027.19z
		 M1651.191,1011.065L1651.191,1011.065c3.833-26.73,26.931-31.619,13.359-6.036l-6.457,7.949c0.447,8.174-1.266,13.76-6.256,8.478
		L1651.191,1011.065z M1467.616,957.652L1467.616,957.652c14.188-33.306,47.734-32.915,20.527-3.944l-11.61,8.313
		c-2.044,10.645-6.303,17.347-11.472,9.149L1467.616,957.652z M1446.322,949.897L1446.322,949.897
		c11.728-27.571,39.474-27.204,16.95-3.248l-9.564,6.862c-1.711,8.822-5.205,14.359-9.5,7.557L1446.322,949.897z M1440.993,987.62
		L1440.993,987.62c7.034-21.77,28.257-23.291,12.691-3.564l-6.838,5.863c-0.707,6.827-2.982,11.265-6.726,6.375L1440.993,987.62z
		 M1541.46,958.174L1541.46,958.174c-14.073-33.306-47.631-32.913-20.439-3.943l11.509,8.312
		c2.059,10.623,6.257,17.372,11.451,9.077L1541.46,958.174z M1569.89,949.703L1569.89,949.703
		c-18.495-25.31-46.581-18.65-17.974,0.547l11.391,4.806c3.82,8.532,8.71,13.387,11.438,5.491L1569.89,949.703z M1603.809,942.49
		L1603.809,942.49c-12.066-15.856-29.844-11.294-11.412,0.594l7.277,2.898c2.566,5.367,5.756,8.355,7.384,3.347L1603.809,942.49z
		 M1574.863,981.215L1574.863,981.215c-13.322-21.862-36.737-18.321-14.711-0.747l8.942,4.705c2.529,7.242,6.171,11.501,8.958,5.245
		L1574.863,981.215z M1571.844,1005.271L1571.844,1005.271c-10.218-20.622-31.512-19.125-13.1-1.788l7.629,4.86
		c1.716,6.677,4.645,10.765,7.617,5.389L1571.844,1005.271z M1573.5,1035.074L1573.5,1035.074
		c-10.049-25.53-35.55-25.882-15.463-3.369l8.604,6.536c1.348,8.127,4.449,13.26,8.512,7.104L1573.5,1035.074z M1571.25,1060.129
		L1571.25,1060.129c-10.055-25.555-35.553-25.834-15.479-3.334l8.629,6.506c1.36,8.105,4.414,13.291,8.531,7.082L1571.25,1060.129z
		 M1565.701,1090.399L1565.701,1090.399c-3.381-27.158-28.049-33.414-14.178-6.862l6.73,8.312c-0.691,8.199,1.012,13.98,6.498,8.942
		L1565.701,1090.399z M1469.493,991.279L1469.493,991.279c14.064-31.465,46.724-32.801,19.927-4.656l-11.312,8.257
		c-2.11,9.946-6.292,16.358-11.26,8.996L1469.493,991.279z M1537.266,982.736L1537.266,982.736
		c-17.338-30.818-50.786-29.225-20.854-2.941l12.37,7.396c3.107,9.929,7.963,16.114,12.33,8.165L1537.266,982.736z
		 M1472.238,1025.472L1472.238,1025.472c11.17-32.159,41.678-38.398,18.449-7.504l-10.113,9.597
		c-1.35,9.844-4.842,16.587-9.951,10.318L1472.238,1025.472z M1535.877,1036.618L1535.877,1036.618
		c-23.724-35.102-57.834-36.902-21.316-3.19l12.986,5.478c4.982,10.707,11.239,18.08,14.563,11.282L1535.877,1036.618z
		 M1524.74,1052.453L1524.74,1052.453c-9.049-13.363-24.989-5.408-11.078,7.409l4.948,2.114c1.901,4.039,4.282,1.848,5.55-0.754
		L1524.74,1052.453z M1528.408,1079.704L1528.408,1079.704c-9.043-13.385-24.971-5.459-11.089,7.396l4.979,2.057
		c1.883,4.064,4.262,1.89,5.515-0.701L1528.408,1079.704z M1523.939,1106.186L1523.939,1106.186
		c-9.037-13.314-24.989-5.42-11.092,7.384l4.937,2.14c1.913,4.041,4.273,1.824,5.562-0.754L1523.939,1106.186z M1542.801,1102.218
		L1542.801,1102.218c-7.615-11.218-21.001-4.564-9.344,6.213l4.195,1.765c1.586,3.446,3.572,1.574,4.652-0.642L1542.801,1102.218z
		 M1536.825,1014.023L1536.825,1014.023c-16.897-29.688-48.058-30.468-19.506-4.135l11.694,7.676
		c3.143,9.381,7.812,15.417,11.711,8.383L1536.825,1014.023z M1638.29,992.462L1638.29,992.462
		c2.997-20.871,20.958-24.662,10.413-4.734l-5.065,6.208c0.377,6.327-0.974,10.72-4.87,6.632L1638.29,992.462z M1614.432,928.849
		L1614.432,928.849c2.994-20.841,20.98-24.649,10.379-4.682l-5.009,6.155c0.353,6.34-0.974,10.718-4.87,6.63L1614.432,928.849z
		 M1632.785,966.435L1632.785,966.435c2.369-16.605,16.754-19.673,8.311-3.773l-4.037,4.942c0.289,5.087-0.786,8.55-3.878,5.282
		L1632.785,966.435z M1625.182,990.117L1625.182,990.117c0.675-16.732,14.686-21.153,7.904-4.541l-3.494,5.318
		c0.779,5.009,0.072,8.548-3.355,5.56L1625.182,990.117z M1621.141,951.443L1621.141,951.443
		c3.224-22.547,22.711-26.706,11.273-5.087l-5.48,6.655c0.396,6.909-1.077,11.623-5.26,7.183L1621.141,951.443z M1685.176,924.855
		L1685.176,924.855c4.236-22.559,25.957-26.099,12.666-4.806l-6.215,6.512c0.211,6.909-1.521,11.621-6.083,7.035L1685.176,924.855z
		 M1676.894,890.509L1676.894,890.509c12.845-26.877,41.274-24.495,17.461-2.021l-10.005,6.229
		c-2.02,8.727-5.803,14.068-9.951,6.886L1676.894,890.509z M1646.871,925.854L1646.871,925.854
		c14.966-21.015,42.541-17.093,17.229-0.416l-10.344,4.408c-2.766,6.981-6.932,11.074-10.348,4.891L1646.871,925.854z
		 M1652.617,945.763L1652.617,945.763c14.953-23.217,43.18-18.133,17.901,2.266l-9.009,7.783c1.998,9.273,10.029,15.696-7.676,4.526
		L1652.617,945.763z M1373.546,787.226L1373.546,787.226c-14.396-24.406-52.087-5.562-22.826,7.509l12.621,1.641
		c1.822,9.18,6.303,13.363,12.469,2.495L1373.546,787.226z M1394.146,790.486L1394.146,790.486c3.375,0,2.554-17.067,9.25-3.261
		c3.054,7.16,7.802,6.107,11.657,9.18c12.911-0.879,12.388,6.855-1.623,23.338c-4.752-1.354-13.735,6.249-15.963-2.448
		C1396.361,808.353,1399.462,798.615,1394.146,790.486 M1396.896,836.996L1396.896,836.996c0,3.868,0.974-15.786,13.279-8.473
		c12.447-13.595,9.126,4.189,11.657,9.173c6.666,4.309,8.78,9.496,1.07,20.748C1418.547,858.07,1408.065,857.689,1396.896,836.996
		 M1411.036,875.044L1411.036,875.044c-10.284-4.806-18.644-17.1,11.901-7.13c12.483-13.617,11.817,3.513,14.331,8.503
		c14.739-7.337,12.197,3.688-1.593,20.1C1431.333,896.165,1422.206,880.237,1411.036,875.044 M1447.659,902.54L1447.659,902.54
		c-3.731-6.873,0.368-22.934,11.271-6.13c8.532-2.994,11.157,4.342,13.808,3.422c11.438-6.304,4.759,7.028-5.971,21.168
		C1463.391,920.698,1452.441,911.47,1447.659,902.54 M1480.164,911.168L1480.164,911.168c1.094-4.73,5.485-19.969,9.768-7.493
		c6.886-2.448,5.662,6.084,7.813,5.33c5.6,2.697,5.586,12.785,0.547,16.386C1491.054,927.328,1477.996,920.745,1480.164,911.168
		 M1531.961,917.531L1531.961,917.531c3.004-5.532-3.575-29.541-12.424-15.952c-6.861-2.441-0.949,6.755-3.126,5.999
		c-5.608,2.65-5.628,12.774-0.612,16.393C1518.538,923.715,1528.027,924.688,1531.961,917.531 M1556.865,914.138L1556.865,914.138
		c2.994-5.513-3.588-29.468-12.411-15.928c-6.862-2.447-0.974,6.707-3.089,5.989c-5.668,2.661-5.668,12.76-0.631,16.427
		C1543.48,920.329,1552.963,921.303,1556.865,914.138 M1351.718,758.327L1351.718,758.327c4.794,0,8.686,2.668,8.686,5.964
		c0,3.287-3.902,5.925-8.71,5.925c-4.771,0-8.639-2.638-8.639-5.925C1343.055,760.995,1346.923,758.327,1351.718,758.327
		 M1383.843,784.903L1383.843,784.903c3.417,0,6.155,2.202,6.155,4.889c0,2.691-2.738,4.942-6.155,4.942
		c-3.386,0-6.106-2.251-6.106-4.942C1377.76,787.105,1380.481,784.903,1383.843,784.903 M1379.387,765.51L1379.387,765.51
		c3.381,0,6.119,2.174,6.119,4.866c0,2.716-2.738,4.912-6.131,4.912c-3.403,0-6.13-2.196-6.13-4.912
		C1373.245,767.685,1376.006,765.51,1379.387,765.51 M1341.523,804.456L1341.523,804.456c4.355-4.414,8.697-1.849,13.042,1.426
		c3.112,4.783,11.828-0.28,11.003,14.002c-0.463,7.837,17.2,8.361,4.842,21.675c-6.488-10.491-13-16.088-25.286-15.406
		C1346.098,817.55,1344.197,811.014,1341.523,804.456 M1339.89,833.002L1339.89,833.002c4.248-3.808,8.507-1.614,12.779,1.179
		c3.078,4.093,11.634-0.251,10.803,11.965c-0.446,6.678,16.89,7.153,4.759,18.483c-6.375-8.959-12.751-13.741-24.823-13.142
		C1344.357,844.125,1342.468,838.542,1339.89,833.002 M1383.268,807.973L1383.268,807.973c-3.577,0.147-4.077,2.924-4.243,5.936
		c0.91,3.142-4.575,4.835,2.044,9.822c3.684,2.774-2.751,10.344,7.795,10.199c-2.198-6.637-2.234-11.466,2.691-16.308
		C1387.36,814.8,1385.192,811.537,1383.268,807.973 M1299.506,865.319L1299.506,865.319c-3.601-10.498,8.675-8.372,15.198-4.183
		c5.514,10.692,14.675,20.746,16.559,32.837c-16.595,9.625-2.834-6.632-12.898-9.626c-3.625-4.693-8.71-10.146-17.42-12.019
		L1299.506,865.319z M1335.926,887.688L1335.926,887.688c-4.842-9.25,6.352-7.402,12.75-3.688
		c6.548,9.451,18.359,13.432,21.924,24.126c-6.762,16.73-2.858-4.45-11.484-0.117c-3.928-4.167-12.193-7.535-20.124-9.251
		L1335.926,887.688z M1337.216,864.796L1337.216,864.796c-4.818-9.246,6.386-7.409,12.738-3.737
		c6.559,9.495,18.347,13.464,21.912,24.182c-6.726,16.683-2.822-4.481-11.438-0.126c-3.938-4.183-12.167-7.576-20.158-9.268
		L1337.216,864.796z M1297.837,894.17L1297.837,894.17c-3.601-10.476,8.716-8.384,15.197-4.183
		c2.633,11.412,16.821,21.436,14.408,37.769c-16.606,9.602-10.79,3.137-11.497-11.724c-3.599-4.703-7.973-12.958-16.694-14.899
		L1297.837,894.17z M1293.654,925.438L1293.654,925.438c4.355-21.399,7.189-9.28,8.651-3.486l6.13,16.653
		c17.706,4.734,5.027,13.629,7.535,20.468c-5.074,3.921-13.25,9.771-8.628-4.915
		C1309.993,943.191,1290.208,946.234,1293.654,925.438 M1673.582,876.518L1673.582,876.518c-19.104,0.547-8.204-23.195-5.059-23.657
		l22.557-0.976c7.651-31.294,12.217-17.129,9.857-20.425c0.445,3.064,2.466,23.615-2.621,25.429
		c-5.608,1.496-0.302,1.948-7.432,2.945C1675.699,861.854,1674.326,869.685,1673.582,876.518 M1290.612,958.699L1290.612,958.699
		c3.749-15.978,6.245-6.965,7.469-2.621l5.282,12.387c15.256,3.494,4.319,10.123,6.487,15.163
		c-4.366,2.947-11.438,7.267-7.462-3.588C1304.664,971.864,1287.677,974.111,1290.612,958.699 M1281.314,979.173L1281.314,979.173
		c2.578-18.152,5.632-7.909,7.141-2.919l6.084,14.063c15.186,4.016,4.966,11.562,7.439,17.332
		c-4.064,3.356-10.696,8.299-7.545-4.166C1296.071,994.227,1279.549,996.771,1281.314,979.173 M1421.429,1041.229L1421.429,1041.229
		c8.834-18.199,8.347-7.933,8.163-2.988l1.217,14.133c13.849,3.969,1.023,11.551,1.485,17.307
		c-5.209,3.321-13.533,8.271-6.143-4.141C1431.017,1056.195,1413.616,1058.786,1421.429,1041.229 M1489.991,1041.556
		L1489.991,1041.556c18.037-9.976,11.527-1.823,8.46,2.121l-7.45,12.191c8.883,10.974-6.083,9.951-9.097,15.002
		c-6.243-0.166-15.982-0.79-2.531-6.852C1488.874,1059.155,1473.141,1051.525,1489.991,1041.556 M1620.273,1066.759
		L1620.273,1066.759c12.666-14.639,9.125-6.375,7.484-2.388l-3.369,11.364c9.941,3.238-2.715,9.323-4.065,13.969
		c-5.244,2.716-13.474,6.685-3.711-3.345C1623.391,1078.903,1608.557,1080.947,1620.273,1066.759 M1636.725,1021.289
		L1636.725,1021.289c14.592-16.807,10.526-7.289,8.647-2.727l-3.878,13.064c11.438,3.714-3.123,10.724-4.693,16.065
		c-6.014,3.066-15.479,7.676-4.236-3.868C1640.342,1035.247,1623.314,1037.594,1636.725,1021.289 M1274.79,1005.153
		L1274.79,1005.153c2.021-14.336,4.432-6.232,5.639-2.323l4.795,11.098c11.971,3.139,3.904,9.103,5.852,13.637
		c-3.202,2.643-8.419,6.535-5.953-3.262C1286.447,1016.994,1273.382,1018.989,1274.79,1005.153 M1274.267,1030.659
		L1274.267,1030.659c1.522-10.92,3.351-4.759,4.26-1.765l3.654,8.467c9.137,2.4,2.976,6.933,4.498,10.378
		c-2.466,2.021-6.424,4.962-4.575-2.494C1283.113,1039.661,1273.199,1041.229,1274.267,1030.659 M1296.357,1068.86L1296.357,1068.86
		c1.848-11.399,4.064-4.936,5.192-1.869l4.432,8.87c11.034,2.519,3.614,7.236,5.414,10.854c-2.96,2.091-7.789,5.205-5.527-2.597
		C1307.088,1078.279,1295.063,1079.9,1296.357,1068.86 M1302.839,1047.96L1302.839,1047.96c2.531-13.665,5.596-5.953,7.106-2.216
		l6.072,10.647c15.103,2.994,4.913,8.65,7.42,13.016c-4.064,2.544-10.647,6.258-7.54-3.101
		C1317.515,1059.284,1301.099,1061.244,1302.839,1047.96 M1336.425,1066.419L1336.425,1066.419
		c2.347-12.618,5.134-5.513,6.529-2.073l5.549,9.775c13.945,2.785,4.6,7.978,6.852,11.994c-3.731,2.341-9.792,5.733-6.946-2.87
		C1349.943,1076.811,1334.815,1078.558,1336.425,1066.419 M1327.775,1088.433L1327.775,1088.433
		c2.127-11.478,4.682-5.015,5.946-1.854l5.075,8.904c12.702,2.497,4.158,7.303,6.245,10.929c-3.411,2.143-8.936,5.233-6.328-2.627
		C1340.073,1097.933,1326.314,1099.524,1327.775,1088.433 M1308.829,1020.435L1308.829,1020.435
		c3.195-15.405,7.069-6.679,8.989-2.494l7.617,11.946c19.083,3.41,6.243,9.797,9.38,14.711c-5.109,2.864-13.432,7.01-9.535-3.512
		C1327.406,1033.179,1306.612,1035.388,1308.829,1020.435 M1314.948,1000.115L1314.948,1000.115
		c2.881-12.542,6.386-5.461,8.104-2.067l6.898,9.773c17.253,2.791,5.656,7.979,8.454,11.947c-4.609,2.312-12.089,5.729-8.573-2.852
		C1331.678,1010.506,1312.94,1012.282,1314.948,1000.115 M1323.32,970.718L1323.32,970.718c2.869-15.881,6.315-6.91,8.02-2.614
		l6.82,12.339c17.065,3.487,5.604,10.07,8.39,15.11c-4.575,2.894-11.989,7.253-8.507-3.637
		C1339.913,983.836,1321.334,986.051,1323.32,970.718 M1327.555,940.797L1327.555,940.797c2.822-15.882,6.286-6.886,8.016-2.591
		l6.803,12.341c17.046,3.487,5.583,10.094,8.371,15.108c-4.575,2.922-11.972,7.23-8.49-3.635
		C1344.091,953.915,1325.595,956.155,1327.555,940.797 M1331.727,910.948L1331.727,910.948c2.857-15.931,12.108-3.44,13.802,0.854
		l6.82,7.422c17.052,3.517,3.423,14.27,6.208,19.333c-4.575,2.91-15.602,4.431-12.121-6.46
		C1348.309,924.02,1329.777,926.259,1331.727,910.948 M1670.163,958.33L1670.163,958.33c12.738-9.306,24.405-11.621,13.397,5.002
		c-8.313,18.577-2.152,23.195,9.172,7.885c9.65-4.635,14.141-6.256,10.366,10.052
		C1679.715,1003.562,1666.691,985.927,1670.163,958.33 M1564.715,889.303L1564.715,889.303c-2.848-14.834,4.492-31.16,9.332-14.93
		c9.043,4.212,9.313-0.231,4.393-6.364c-1.886-10.242-0.934-14.881,14.199-6.872c2.473,14.479-7.796,21.192-13.652,28.798
		C1570.924,900.498,1568.684,901.399,1564.715,889.303 M1700.384,992.392L1700.384,992.392c9.556-6.988,18.353-8.716,10.077,3.755
		c-6.237,13.919-1.628,17.379,6.875,5.895c7.255-3.471,10.623-4.677,7.789,7.551
		C1707.566,1026.323,1697.795,1013.085,1700.384,992.392 M1356.899,1009.17L1356.899,1009.17c-9.316-0.826-15.829,1.859-5.009,7.301
		c10.094,7.433,8.563,12.091-1.997,7.433c-6.279,0.743-9.066,1.337-1.912,9.103
		C1366.756,1037.408,1367.523,1023.232,1356.899,1009.17 M1371.384,1039.762L1371.384,1039.762
		c-5.805-6.209-12.014-8.323-8.133,1.918c2.085,11.218-1.979,13.458-6.179,3.917c-4.748-3.293-7.035-4.534-7.142,5.062
		C1359.906,1064.994,1369.567,1055.774,1371.384,1039.762 M1710.486,870.611L1710.486,870.611c19.967-8.661,24.41-5.317,19.615,9.94
		c-7.557,3.874-15.125,7.706-7.229,20.551l17.485,4.408c8.521,17.303,5.027,22.999-8.408,19.007
		c5.207-8.983-14.334-17.983-21.488-26.979L1710.486,870.611z M1734.193,887.562L1734.193,887.562
		c7.857,4.113,27.059-1.8,23.59,12.271l1.119,11.638c-6.181-7.296-12.389-12.59-21.646-12.958
		C1723.893,894.864,1731.07,892.227,1734.193,887.562 M1707.313,944.385L1707.313,944.385c2.799,0,5.121,3.144,5.121,6.965
		c0,3.879-2.322,6.98-5.143,6.98c-2.892,0-5.166-3.102-5.166-6.98C1702.125,947.528,1704.449,944.385,1707.313,944.385
		 M1510.293,1353.177L1510.293,1353.177c51.38,0,93.201,41.221,93.129,91.735c-0.06,50.495-42.038,91.711-93.437,91.711
		c-51.359,0-93.215-41.216-93.155-91.711C1416.937,1394.397,1458.93,1353.177,1510.293,1353.177 M1510.236,1365.321
		L1510.236,1365.321c44.6,0,80.894,35.785,80.821,79.591c-0.069,43.84-36.467,79.589-81.04,79.589
		c-44.553,0-80.878-35.749-80.789-79.589C1429.312,1401.106,1465.708,1365.321,1510.236,1365.321 M1510.168,1424.967
		L1510.168,1424.967c11.17,0,20.272,8.952,20.248,19.945c0,10.974-9.125,19.903-20.32,19.903c-11.146,0-20.235-8.93-20.235-19.903
		C1489.873,1433.919,1499.01,1424.967,1510.168,1424.967 M1509.448,1378.512L1509.448,1378.512c-1.094-8.674,15.685-8.371,14.419,0
		l-5.756,38.477h-3.733L1509.448,1378.512z M1493.609,1380.531L1493.609,1380.531c-2.774-8.252,13.762-11.051,14.177-2.644
		l1.882,38.827l-3.66,0.718L1493.609,1380.531z M1475.523,1386.49L1475.523,1386.49c-5.329-7.005,9.472-14.662,12.584-6.778
		l14.385,36.301l-3.275,1.753L1475.523,1386.49z M1461.811,1397.518L1461.811,1397.518c-6.897-5.562,5.562-16.464,10.54-9.554
		l22.981,31.869l-2.734,2.467L1461.811,1397.518z M1448.818,1408.955L1448.818,1408.955c-8.093-3.833,1.312-17.253,7.871-11.691
		l30.237,25.535l-2.008,3.07L1448.818,1408.955z M1439.775,1424.515L1439.775,1424.515c-8.77-1.801-2.988-17.057,4.735-13.19
		l35.737,17.753l-1.23,3.447L1439.775,1424.515z M1441.736,1460.044L1441.736,1460.044c-8.735,2.17-10.553-13.955-1.824-13.855
		l40.211,0.547l0.451,3.613L1441.736,1460.044z M1448.158,1477.874L1448.158,1477.874c-7.736,4.462-14.158-10.517-5.788-12.792
		l38.78-10.427l1.491,3.298L1448.158,1477.874z M1458.293,1492.365L1458.293,1492.365c-6.339,6.155-16.397-6.815-8.881-10.997
		l34.982-19.304l2.298,2.821L1458.293,1492.365z M1474.104,1505.297L1474.104,1505.297c-4.272,7.679-17.789-1.886-11.807-8.055
		l27.609-28.315l3.042,2.098L1474.104,1505.297z M1492.415,1512.589L1492.415,1512.589c-1.729,8.525-17.546,3.209-13.678-4.345
		l17.938-34.838l3.529,1.105L1492.415,1512.589z M1510.814,1514.207L1510.814,1514.207c0.912,8.673-15.869,7.976-14.408-0.308
		l6.631-38.337l3.724,0.049L1510.814,1514.207z M1527.568,1512.256L1527.568,1512.256c2.325,8.384-14.321,10.356-14.299,1.951
		l0.16-38.9l3.707-0.498L1527.568,1512.256z M1544.301,1504.851L1544.301,1504.851c3.72,7.937-12.39,12.499-13.779,4.173
		l-6.34-38.404l3.531-1.092L1544.301,1504.851z M1562.357,1495.733L1562.357,1495.733c5.731,6.71-8.615,15.175-12.182,7.477
		l-16.417-35.483l3.126-1.901L1562.357,1495.733z M1573.455,1481.89L1573.455,1481.89c7.325,5.04-4.311,16.804-9.774,10.29
		l-25.382-30.139l2.52-2.687L1573.455,1481.89z M1581.34,1465.463L1581.34,1465.463c8.404,3.041,0.348,17.278-6.722,12.364
		l-32.571-22.743l1.729-3.239L1581.34,1465.463z M1583.869,1448.257L1583.869,1448.257c8.967,0.839,4.974,16.559-3.155,13.588
		l-37.585-13.772l0.838-3.541L1583.869,1448.257z M1438.789,1444.169L1438.789,1444.169c-9.013,0.313-7.202-15.833,1.294-13.92
		l39.118,8.93l-0.338,3.563L1438.789,1444.169z M1527.813,1379.64L1527.813,1379.64c1.15-8.604,17.325-4.242,13.97,3.541
		l-15.521,35.875l-3.613-0.903L1527.813,1379.64z M1545.334,1385.944L1545.334,1385.944c3.334-8.08,17.859,0.023,12.6,6.755
		l-24.304,31.038l-3.239-1.741L1545.334,1385.944z M1560.699,1398.962L1560.699,1398.962c6.184-6.333,16.634,6.357,9.19,10.771
		l-34.293,20.32l-2.372-2.764L1560.699,1398.962z M1580.922,1432.667L1580.922,1432.667c8.873-1.491,9.263,14.741,0.597,13.921
		l-40.005-3.846l-0.148-3.589L1580.922,1432.667z M1575.8,1415.224L1575.8,1415.224c8.128-3.749,13.083,11.764,4.519,13.26
		l-39.606,6.827l-1.172-3.434L1575.8,1415.224z M1687.294,1531.608L1687.294,1531.608c3.708,0,6.705,2.941,6.705,6.535
		c0,3.538-3.02,6.457-6.728,6.457c-3.688,0-6.683-2.919-6.683-6.457C1680.589,1534.55,1683.631,1531.608,1687.294,1531.608
		 M1667.266,1533.079L1667.266,1533.079c3.674,0,6.693,2.919,6.693,6.46c0,3.588-3.02,6.485-6.715,6.485
		c-3.688,0-6.684-2.897-6.684-6.485C1660.561,1535.998,1663.603,1533.079,1667.266,1533.079 M1649.318,1534.524L1649.318,1534.524
		c3.66,0,6.68,2.872,6.655,6.441c0,3.588-2.995,6.479-6.702,6.479c-3.689,0-6.684-2.891-6.684-6.479
		C1642.588,1537.396,1645.582,1534.524,1649.318,1534.524 M1631.32,1535.926L1631.32,1535.926c3.715,0,6.705,2.896,6.705,6.46
		c-0.024,3.588-2.99,6.498-6.715,6.498c-3.691,0-6.676-2.91-6.676-6.498C1624.635,1538.822,1627.645,1535.926,1631.32,1535.926
		 M1614.41,1536.372L1614.41,1536.372c3.664,0,6.68,2.888,6.68,6.479c0,3.538-3.07,6.485-6.73,6.485
		c-3.657,0-6.654-2.947-6.654-6.485C1607.705,1539.26,1610.702,1536.372,1614.41,1536.372 M1598.511,1537.786L1598.511,1537.786
		c3.683,0,6.651,2.922,6.651,6.488s-3.02,6.482-6.708,6.482c-3.694,0-6.677-2.916-6.677-6.482S1594.784,1537.786,1598.511,1537.786
		 M1582.58,1538.213L1582.58,1538.213c3.684,0,6.681,2.916,6.681,6.485c0,3.595-3.011,6.485-6.692,6.485
		c-3.701,0-6.696-2.891-6.696-6.485C1575.872,1541.129,1578.892,1538.213,1582.58,1538.213 M1560.485,1537.642L1560.485,1537.642
		c3.683,0,6.724,2.922,6.698,6.51c0,3.563-3.028,6.438-6.698,6.438c-3.702,0-6.708-2.875-6.708-6.438
		C1553.777,1540.563,1556.797,1537.642,1560.485,1537.642 M1536.328,1540.061L1536.328,1540.061c3.702,0,6.693,2.922,6.693,6.491
		c0,3.589-3.004,6.479-6.718,6.479c-3.661,0-6.689-2.891-6.689-6.479C1529.614,1542.982,1532.656,1540.061,1536.328,1540.061
		 M1516.857,1541.934L1516.857,1541.934c3.714,0,6.742,2.909,6.708,6.498c0,3.569-2.994,6.44-6.708,6.44
		c-3.683,0-6.689-2.871-6.689-6.44C1510.168,1544.843,1513.197,1541.934,1516.857,1541.934 M1498.927,1539.345L1498.927,1539.345
		c3.671,0,6.691,2.935,6.691,6.522c-0.038,3.538-3.054,6.485-6.704,6.485c-3.701,0-6.696-2.947-6.696-6.485
		C1492.218,1542.279,1495.249,1539.345,1498.927,1539.345 M1481.977,1538.822L1481.977,1538.822c3.707,0,6.724,2.885,6.701,6.498
		c0,3.538-3.029,6.436-6.701,6.436c-3.69,0-6.696-2.897-6.696-6.436C1475.281,1541.707,1478.299,1538.822,1481.977,1538.822
		 M1461.96,1538.238L1461.96,1538.238c3.695,0,6.689,2.916,6.689,6.485s-3.042,6.485-6.689,6.485c-3.714,0-6.708-2.916-6.708-6.485
		C1455.275,1541.154,1458.27,1538.238,1461.96,1538.238 M1443.987,1535.693L1443.987,1535.693c3.714,0,6.726,2.896,6.713,6.485
		c0,3.538-2.999,6.441-6.726,6.441c-3.689,0-6.707-2.903-6.707-6.441C1437.268,1538.59,1440.31,1535.693,1443.987,1535.693
		 M1426.027,1535.103L1426.027,1535.103c3.712,0,6.707,2.916,6.707,6.479c-0.041,3.589-3.029,6.461-6.743,6.461
		c-3.665,0-6.655-2.872-6.655-6.461C1419.336,1538.019,1422.355,1535.103,1426.027,1535.103 M1410.133,1534.524L1410.133,1534.524
		c3.679,0,6.697,2.922,6.685,6.511c0,3.565-3.005,6.435-6.708,6.435c-3.695,0-6.69-2.869-6.69-6.435
		C1403.432,1537.446,1406.45,1534.524,1410.133,1534.524 M1343.834,1558.743L1343.834,1558.743c3.671,0,6.643,2.941,6.643,6.505
		c0,3.594-2.995,6.473-6.689,6.473c-3.667,0-6.685-2.879-6.685-6.473C1337.126,1561.685,1340.121,1558.743,1343.834,1558.743
		 M1335.706,1353.332L1335.706,1353.332c3.648,0,6.655,2.958,6.655,6.5c0,3.577-3.007,6.488-6.666,6.488
		c-3.714,0-6.743-2.911-6.743-6.488C1328.952,1356.29,1331.981,1353.332,1335.706,1353.332 M1510.654,1433.944L1510.654,1433.944
		c5.734,0,10.344,4.48,10.344,9.97c0,5.513-4.675,9.975-10.365,9.975c-5.675,0-10.298-4.462-10.262-9.975
		C1500.371,1438.425,1504.999,1433.944,1510.654,1433.944 M1600.32,864.819L1600.32,864.819c11.846-7.154,16.961-1.941,11.378,7.776
		c-7.337,11.949-9.284,22.145-5.942,30.677l10.197-22.441c4.842,0.915,10.33,1.218,8.436,16.356
		c-7.729,2.893-9.648,12.668-13.592,19.225c-0.905,1.499-5.088-1.425-5.854,0.198C1598.385,902.25,1597.958,884.325,1600.32,864.819
		 M1385.982,875.674L1385.982,875.674c-11.841-7.118-12.287,2.567-6.689,12.316c7.26,11.961,9.197,22.166,5.827,30.688
		l-4.793-15.258c-4.831,0.874-7.642-4.688-5.794,10.45c7.689,2.918,1.593,6.203,5.515,12.764c0.908,1.496,6.433-2.093,7.212-0.452
		C1393.854,911.851,1402.375,890.034,1385.982,875.674 M1373.755,928.933L1373.755,928.933c-10.623-6.606-11.484,2.437-6.766,11.49
		c6.279,11.146,7.616,20.646,4.052,28.554l-3.75-14.199c-4.549,0.831-6.886-4.354-5.852,9.761c7.035,2.686,1.194,5.752,4.551,11.835
		c0.767,1.427,6.072-1.92,6.732-0.374C1379.471,962.614,1388.407,942.317,1373.755,928.933 M1363.738,978.797L1363.738,978.797
		c-8.152-3.018-8.152,2.786-4.135,7.92c5.233,6.315,6.814,12.168,4.795,17.533l-3.661-8.55c-3.202,1.046-5.246-1.974-3.552,6.762
		c5.263,0.939,1.259,3.516,4.063,6.976c0.666,0.826,4.231-1.89,4.801-0.974C1370.077,999.313,1375.126,985.576,1363.738,978.797
		 M1427.121,995.2L1427.121,995.2c-3.15-1.715-8.806,2.093-12.59,8.55c-3.772,6.488-4.295,13.144-1.17,14.837
		c3.178,1.729,8.823-2.093,12.619-8.556C1429.739,1003.584,1430.275,996.924,1427.121,995.2 M1601.842,959.353L1601.842,959.353
		c2.324-1.303,6.46,1.543,9.209,6.277c2.787,4.761,3.139,9.626,0.84,10.891c-2.338,1.279-6.461-1.542-9.223-6.303
		C1599.881,965.482,1599.529,960.641,1601.842,959.353 M1607.604,986.973L1607.604,986.973c1.893-0.976,5.141,1.265,7.328,4.967
		c2.181,3.737,2.47,7.629,0.66,8.649c-1.848,0.952-5.122-1.253-7.315-5.036C1606.115,991.815,1605.807,987.971,1607.604,986.973
		 M1578.59,940.541L1578.59,940.541c3.111-1.716,8.71,2.08,12.421,8.483c3.724,6.334,4.226,12.947,1.106,14.658
		c-3.14,1.693-8.701-2.092-12.424-8.454C1575.944,948.829,1575.461,942.222,1578.59,940.541 M1583.733,968.465L1583.733,968.465
		c3.12-1.662,8.691,2.104,12.421,8.485c3.727,6.362,4.213,12.969,1.1,14.662c-3.143,1.7-8.703-2.096-12.411-8.449
		C1581.107,976.778,1580.607,970.171,1583.733,968.465 M1588.481,996.341L1588.481,996.341c2.423-1.36,6.825,1.634,9.74,6.643
		c2.925,5.04,3.353,10.25,0.88,11.587c-2.444,1.378-6.824-1.617-9.797-6.653C1586.401,1002.877,1585.996,997.667,1588.481,996.341
		 M1583.976,1024.997L1583.976,1024.997c2.46-1.373,6.837,1.646,9.784,6.684c2.92,5.008,3.347,10.22,0.873,11.569
		c-2.469,1.324-6.871-1.666-9.79-6.702C1581.896,1031.532,1581.519,1026.323,1583.976,1024.997 M1579.124,1052.023
		L1579.124,1052.023c2.124-1.787,7.069,0.28,10.985,4.635c3.934,4.319,5.404,9.357,3.286,11.122c-2.144,1.8-7.073-0.268-11.01-4.609
		C1578.465,1058.815,1577.02,1053.824,1579.124,1052.023 M1603.073,1036.814L1603.073,1036.814c1.71-1.414,5.605,0.232,8.723,3.636
		c3.085,3.47,4.282,7.409,2.563,8.835c-1.668,1.427-5.608-0.196-8.697-3.66C1602.574,1042.203,1601.402,1038.241,1603.073,1036.814
		 M1605.781,1059.035L1605.781,1059.035c2.229-0.249,4.396,3.345,4.82,7.907c0.428,4.564-1.071,8.396-3.324,8.573
		c-2.193,0.22-4.355-3.321-4.758-7.884C1602.074,1063.07,1603.541,1059.202,1605.781,1059.035 M1598.825,1080.496L1598.825,1080.496
		c2.196-0.096,4.191,3.541,4.343,8.127c0.194,4.575-1.496,8.359-3.762,8.406c-2.203,0.101-4.17-3.564-4.32-8.104
		C1594.916,1084.364,1596.607,1080.53,1598.825,1080.496 M1576.824,1077.209L1576.824,1077.209c2.228-1.64,7.01,0.827,10.52,5.489
		c3.561,4.588,4.582,9.744,2.318,11.344c-2.24,1.64-7.021-0.82-10.576-5.468C1575.545,1083.965,1574.549,1078.831,1576.824,1077.209
		 M1532.75,1066.307L1532.75,1066.307c1.605-1.163,4.98,0.559,7.51,3.874c2.498,3.268,3.221,6.888,1.631,8.028
		c-1.631,1.168-5.006-0.572-7.481-3.868C1531.889,1071.054,1531.156,1067.466,1532.75,1066.307 M1385.4,1065.819L1385.4,1065.819
		c1.741-1.2,5.329,0.672,8.056,4.188c2.71,3.566,3.5,7.481,1.764,8.675c-1.717,1.289-5.329-0.623-8.056-4.135
		C1384.462,1070.983,1383.659,1067.109,1385.4,1065.819 M1381.301,1033.179L1381.301,1033.179c2.465-0.429,5.18,3.29,6.119,8.294
		c0.91,4.991-0.344,9.459-2.823,9.881c-2.399,0.38-5.15-3.369-6.06-8.349C1377.634,1037.989,1378.864,1033.576,1381.301,1033.179
		 M1378.924,1024.903L1378.924,1024.903c-2.127-0.626-2.774-4.642-1.457-8.955c1.303-4.384,4.101-7.403,6.215-6.778
		c2.115,0.569,2.798,4.61,1.461,8.918C1383.832,1022.43,1381.034,1025.497,1378.924,1024.903 M1606.328,1007.103L1606.328,1007.103
		c2.643-1.451,7.359,1.763,10.504,7.177c3.137,5.353,3.566,10.914,0.921,12.364c-2.64,1.442-7.337-1.788-10.476-7.154
		C1604.142,1014.106,1603.689,1008.545,1606.328,1007.103 M1439.888,925.658L1439.888,925.658c2.418,2.519-0.149,8.656-5.722,13.642
		c-5.549,4.968-12.067,6.935-14.491,4.421c-2.424-2.549,0.149-8.682,5.679-13.665
		C1430.97,925.064,1437.475,923.093,1439.888,925.658 M1403.349,926.936L1403.349,926.936c-2.633-2.322-0.6-8.65,4.562-14.016
		c5.182-5.365,11.497-7.836,14.135-5.538c2.632,2.401,0.553,8.682-4.575,14.046C1412.313,926.853,1405.963,929.323,1403.349,926.936
		 M1409.528,944.712L1409.528,944.712c2.275,1.771,1.034,6.976-2.763,11.586c-3.772,4.622-8.698,7.011-10.961,5.293
		c-2.276-1.74-1.023-6.933,2.751-11.567C1402.35,945.408,1407.288,943.014,1409.528,944.712 M1396.201,991.232L1396.201,991.232
		c-2.044-0.789-2.288-4.83-0.521-8.965c1.741-4.166,4.842-6.916,6.862-6.138c2.042,0.82,2.239,4.837,0.521,8.972
		C1401.305,989.271,1398.208,992.035,1396.201,991.232 M1403.188,1001.285L1403.188,1001.285c2.602,0.874,3.202,5.889,1.348,11.218
		c-1.884,5.317-5.536,8.977-8.14,8.151c-2.602-0.886-3.208-5.9-1.324-11.217C1396.944,1004.108,1400.575,1000.441,1403.188,1001.285
		 M1396.23,1046.314L1396.23,1046.314c-2.317-1.569-1.39-6.702,2.057-11.448c3.428-4.73,8.104-7.349,10.451-5.781
		c2.287,1.598,1.372,6.756-2.057,11.479C1403.249,1045.27,1398.554,1047.859,1396.23,1046.314 M1413.509,1057.716L1413.509,1057.716
		c2.079,1.267,1.628,5.756-1.059,10.089c-2.702,4.319-6.636,6.862-8.74,5.62c-2.115-1.23-1.639-5.763,1.07-10.101
		C1407.448,1059.035,1411.399,1056.516,1413.509,1057.716 M1411.839,1084.22L1411.839,1084.22c2.424,0.398,3.714,4.734,2.881,9.722
		c-0.884,4.942-3.511,8.703-5.982,8.323c-2.401-0.393-3.714-4.761-2.871-9.744
		C1406.694,1087.553,1409.378,1083.792,1411.839,1084.22 M1428.499,1084.618L1428.499,1084.618c2.471,0.126,4.158,4.336,3.868,9.37
		c-0.339,5.015-2.627,9.007-5.085,8.857c-2.46-0.131-4.184-4.367-3.844-9.381C1423.75,1088.433,1426.027,1084.417,1428.499,1084.618
		 M1569.717,939.52L1569.717,939.52c-2.08-0.393-3.029-4.183-2.127-8.419c0.886-4.225,3.334-7.36,5.414-6.963
		c2.029,0.403,3.028,4.188,2.102,8.46C1574.21,936.828,1571.771,939.972,1569.717,939.52 M1593.971,925.214L1593.971,925.214
		c-1.693,0.7-4.309-1.6-5.873-5.115c-1.489-3.488-1.322-6.911,0.396-7.576c1.69-0.72,4.342,1.568,5.825,5.063
		C1595.865,921.095,1595.705,924.518,1593.971,925.214 M1336.033,1133.063L1336.033,1133.063c3.69,0,6.643,14.468,6.631,32.244
		c-0.06,17.753-3.054,32.255-6.713,32.255c-3.702,0-6.643-14.502-6.631-32.255
		C1329.367,1147.531,1332.361,1133.063,1336.033,1133.063 M1404.584,1121.598L1404.584,1121.598c1.843,0,3.327,8.845,3.316,19.688
		c-0.03,10.855-1.551,19.727-3.364,19.727c-1.848,0-3.333-8.871-3.333-19.727
		C1401.239,1130.442,1402.749,1121.598,1404.584,1121.598 M1530.497,1140.218L1530.497,1140.218
		c5.308,0,11.462,18.031,13.668,40.162c2.225,22.048-0.271,40.104-5.599,40.104c-5.305,0-11.438-18.057-13.662-40.104
		C1522.698,1158.249,1525.193,1140.218,1530.497,1140.218 M1599.299,1130.201L1599.299,1130.201
		c2.941,1.521,2.543,21.162-0.914,52.479c-3.446,31.346-7.154,56.425-14.538,52.069c-7.374-4.372,0.434-26.136,3.88-57.458
		c1.936-17.669,2.225-35.922,4.551-45.802C1594.087,1123.838,1597.98,1129.569,1599.299,1130.201 M1386.237,1160.34
		L1386.237,1160.34c2.204,1.499,4.891,21.1,1.123,52.433c-3.785,31.37-11.271,56.406-16.73,52.064
		c-5.491-4.368,4.206-25.406,8.003-56.747c2.132-17.656,0.047-36.652,2.191-46.483
		C1382.501,1153.93,1385.31,1159.646,1386.237,1160.34 M1607.256,1107.986L1607.256,1107.986
		c61.983,37.193,36.479,124.386,36.807,132.942l0.74,20.396l6.584-0.25l4.587-115.422c16.138-0.352,17.401,36.581,3.727,110.775
		c2.19,12.851,32.452,73.738-4.601,40.728l5.242,25.209c7.402-4.319,13.787-1.941,19.179,7.129
		c-2.919,12.864,23.776,17.855,0.069,24.289l-9.904-20.925l-5.063,29.527c-22.934-31-31.417-59.691-40.517-83.86
		c-14.504-38.424-26.099-66.021-18.677-83.797L1607.256,1107.986z M1382.162,1087.903L1382.162,1087.903
		c-12.34,15.407-23.188,32.962-38.487,41.945c9.429,21.193,9.043,40.42,2.602,97.89c-12.935,36.099-17.29,92.826-2.952,75.853
		c-1.183,5.525,0.231-12.445,2.952-16.463c2.704-4.039,1.474,18.804,7.813,13.469c10.7-9.071,2.609,27.83-30.211,21.64
		c0.57,9.755-13.665,22.386,3.981,32.118c8.36-11.396,38.155-6.362,23.558-19.22c19.468-26.161,23.36-42.469,23.592-63.021
		c0.196-17.067,9.857-5.583,11.288-9.369c14.592-38.398,26.226-58.147,12.234-80.938L1382.162,1087.903z M1416.693,1140.716
		L1416.693,1140.716c-7.546-45.653,53.174-26.177,38.511,41.186c-3.137,15.614-0.023,31.276,7.349,46.883
		c7.119,14.711-3.648,32.268,6.412,47.003c0.985,6.51,0.028,15.006-5.912,22.51c-1.884-10.646-0.803-27.044-8.699-23.384
		c1.534,11.889,0.453,18.578-3.309,20.201l-1.914-19.107l-7.712,0.075c0.023,10.523,3.993,20.029,0.036,31.537
		c-8.604,5.365-13.238,7.861-13.921,16.138c-4.669,7.2-8.394,2.916-11.051-7.129c12.935-7.582,20.083-18.378,14.556-36.202
		c-2.238,7.7-1.496,12.542-6.683,11.621C1432.366,1226.289,1412.64,1189.239,1416.693,1140.716 M1485.903,1179.993
		L1485.903,1179.993c2.774-43.389,41.412-28.376,35.63,35.429c13.652,40.288,6.569,67.096,2.459,86.196
		c-6.184,11.146-3.748,23.314,3.256,42.167c-10.218,2.519-25.09,5.423-40.602,2.881
		C1474.525,1292.047,1495.106,1234.589,1485.903,1179.993 M1545.868,1137.431L1545.868,1137.431
		c2.687-13.118,42.381-47.834,36.637-12.424c7.413,41.721-28.486,124.597-0.585,137.887c-0.219,14.989,2.182,32.885-2.674,48.826
		C1560.699,1316.359,1551.467,1170.769,1545.868,1137.431 M1404.663,1243.216L1404.663,1243.216
		c9.844,9.263,12.809,27.135,14.746,41.174c-8.253,18.548-15.525,20.747-24.788,18.204
		C1397.954,1289.172,1401.305,1269.375,1404.663,1243.216 M1270.132,1424.213L1270.132,1424.213
		c11.657,3.368,17.742,13.046,22.144,20.746c-5.241,12.215-12.274,14.919-22.131,15.281
		C1271.238,1451.892,1271.238,1439.85,1270.132,1424.213 M1599.674,1252.793L1599.674,1252.793c4.342,0,7.908,12.471,7.861,27.776
		c-0.025,15.286-3.588,27.757-7.931,27.757c-4.368,0-7.921-12.471-7.887-27.757
		C1591.742,1265.264,1595.307,1252.793,1599.674,1252.793 M1555.226,1268.598L1555.226,1268.598c2.093,0,3.796,12.424,3.773,27.757
		c-0.054,15.306-1.763,27.776-3.837,27.776c-2.117,0-3.82-12.471-3.768-27.776
		C1551.395,1281.021,1553.129,1268.598,1555.226,1268.598 M1288.675,1383.354L1288.675,1383.354
		c9.737-8.276,17.01-8.407,24.729-4.296c1.615,0.827,0.63,7.189,2.567,8.71c2.068,1.67,7.023-1.544,8.674,1.367
		c2.519,4.343,4.152,10.45,3.712,19.297l4.915,6.56l-0.695,9.624l6.196,1.301l1.348,13.763
		c14.117,15.013,29.701-10.743,40.533,7.456c34.596,1.961,14.686-23.34,20.515-36.575c4.295-9.78,9.601-18.46,17.96-21.948
		c6.143-3.665,7.629-1.317,4.682,3.868c-8.246,14.308-11.544,25.286-12.067,37.294c-1.391,32.789-23.486,13.54-27.597,26.089
		c-9.02,22.464,40.371,42.938,42.272,69.211l-10.344-0.025c-19.737-50.482-63.357-23.314-62.3-49.842
		c-17.058,16.659-29.666,5.515-37.609-11.668c-0.575,14.835-2.132,27.733-13.593,27.206c-19.69,1.474-19.589,17.575,0.302,28.29
		l-6.63,4.794c-19.006-8.822-22.814-25.61-7.479-35.076c8.917-2.121,9.917-11.946,5.959-17.913l1.8-27.745
		c0.671-13.938,8.253-26.463,2.008-41.868c-1.835-3.785-4.551-3.708-5.513,1.497c2.886,5.538,3.042,10.273-0.387,15.856
		c-1.462,2.65-6.363,3.44-8.716-2.021C1286.851,1406.668,1280.779,1390.032,1288.675,1383.354 M1307.718,1399.259L1307.718,1399.259
		c0.765-0.523,2.484,1.141,4.687,4.289c0.779,1.146,1.557,4.782,2.473,6.233c0.534,0.902,1.057-0.499,1.591,0.498
		c0.756,1.324,1.023,4.831,1.801,6.352c0.754,1.498,2.02,0.951,2.798,2.555c0.44,0.962,0.892,1.889,1.301,2.834
		c0.559,1.194-0.142,3.992,1.569,3.494c1.194-0.326,0.963,2.299,1.425,3.396c0.465,1.143,0.185,5.034,0.572,6.108
		c0.707,1.788,2.031,0.689,2.602,2.313c0.261,0.802,0.231,5.342,0.5,6.06c1.389,3.868,2.423,5.158,1.508,5.786
		c-1.034,0.673-3.529-2.221-6.643-7.283c-0.884-1.427-1.081-3.993-2.02-5.781c-0.57-1.046-1.882-1.218-2.508-2.395
		c-0.57-1.146-1.395-5.804-1.978-7.01c-0.588-1.219-0.951,0.998-1.538-0.292c-0.767-1.598-1.653-7.837-2.347-9.381
		c-1.094-2.619-1.824-0.451-2.674-2.785c-0.844-2.253-0.125-1.38-0.707-3.253
		C1308.703,1406.168,1306.832,1399.878,1307.718,1399.259 M1334.127,1376.344L1334.127,1376.344h79.186v7.65
		c-29.897,14.545-17.219,63.556-35.203,51.27l-16.975-1.973c-10.622-5.734-15.952-17.278-15.987-30.688l-9.079,0.547
		L1334.127,1376.344z M1634.586,1405.068L1634.586,1405.068c2.369,0,4.307,2.366,4.307,5.26c0,2.875-1.985,5.293-4.307,5.293
		c-2.379,0-4.296-2.418-4.296-5.293C1630.303,1407.435,1632.238,1405.068,1634.586,1405.068 M1283.97,1363.896L1283.97,1363.896
		c2.87,0,5.252-2.785,5.252-6.251c0-3.396-2.371-6.23-5.239-6.23c-2.947,0-5.282,2.834-5.282,6.23
		C1278.7,1361.11,1281.035,1363.896,1283.97,1363.896 M1299.666,1343.785L1299.666,1343.785c3.904,0,7.083,2.787,7.029,6.202
		c0,3.447-3.148,6.232-7.082,6.232c-3.879,0-7.029-2.785-7.029-6.232C1292.584,1346.572,1295.757,1343.785,1299.666,1343.785
		 M1636.178,1338.016L1636.178,1338.016c3.275,0,5.939,2.995,5.939,6.714c0,3.69-2.664,6.685-5.964,6.685
		c-3.262,0-5.913-2.994-5.913-6.685C1630.24,1341.011,1632.892,1338.016,1636.178,1338.016 M1745.492,1393.55L1745.492,1393.55
		c3.041,0,5.43,22.195,5.404,49.365c-0.051,27.183-2.542,49.303-5.512,49.303c-3.029,0-5.455-22.12-5.4-49.303
		C1740.031,1415.745,1742.525,1393.55,1745.492,1393.55 M1308.181,1496.079L1308.181,1496.079
		c50.827-3.192,76.571,3.819,77.208,21.051l0.974,25.878l-6.892,0.364l-0.933-11.135c-3.285-4.173-7.581-7.409-12.839-3.915
		l-4.237,9.464l-5.656,0.302l-1.824-10.715c-2.995-5.562-11.971-9.175-17.984-2.231l-1.681,11.331l-7.005-1.122l-2.098-12.917
		l-19.042-7.23C1299.911,1508.815,1302.572,1502.443,1308.181,1496.079 M1605.305,1455.838L1605.305,1455.838l8.533,1.068
		l3.321,25.709c2.495,9.603,20.942,8.604,19.493,20.07l-16.611,26.899l-5.424-0.123l6.58-12.363
		c-1.992-6.134,9.916-19.001-10.947-6.008l-6.108,19.468l-38.827,1.898C1596.229,1501.806,1608.729,1476.281,1605.305,1455.838
		 M1675.605,1448.156L1675.605,1448.156c34.701-4.438,45.525,10.249,32.627,44.062c-7.604,10.226-15.232,21.393-19.867,33.509
		h-12.863l15.663-27.985c14.127-20.936,9.438-22.708-8.142-11.11l-12.41-2.055L1675.605,1448.156z M1619.248,1401.226
		L1619.248,1401.226l2.367-20.414l4.587,13.784l7.814,0.601l11.02-14.07c2.215,11.829,11.739,21.526,6.63,35.458
		c-1.869,5.192-6.583,13.665-15.865,10.475c-1.646,11.121-2.287,21.317,1.025,30.567l3.864,5.912
		c0.305-10.521,0.619-21.074,3.894-31.614c13.338-5.389,40.542-35.707,25.076,9.678c-7.302,25.803-12.618,58.32-15.999,88.957
		l-11.853-0.974c9.483-20.895,3.017-38.997-16.546-54.776l1.046-12.364l0.996-26.611
		C1616.527,1427.658,1611.513,1417.084,1619.248,1401.226 M1435.747,1321.237L1435.747,1321.237
		c2.969,11.252,8.691,17.859,10.271,3.113c4.111-14.651,9.964-14.574,9.186-0.465c3.422,7.071,5.293,10.09,10.991-1.222
		C1463.249,1299.053,1447.065,1303.51,1435.747,1321.237 M1534.041,1340.838L1534.041,1340.838c2.576,9.696,7.522,15.429,8.905,2.69
		c3.563-12.667,8.591-12.595,7.911-0.403c2.979,6.083,4.575,8.663,9.502-1.068
		C1557.817,1321.611,1543.838,1325.485,1534.041,1340.838 M1283.055,1335.354L1283.055,1335.354
		c9.298-20.943,29.237-19.946,12.292-2.045l-7.118,5.033c-1.521,6.777-4.2,10.925-7.046,5.583L1283.055,1335.354z
		 M1308.472,1325.058L1308.472,1325.058c9.31-20.967,29.244-19.98,12.269-2.067l-7.093,5.063c-1.521,6.749-4.237,10.961-7.059,5.529
		L1308.472,1325.058z M1370.641,1330.957L1370.641,1330.957c9.293-20.938,29.237-19.916,12.251-2.009l-7.083,5.027
		c-1.508,6.768-4.199,10.974-7.081,5.562L1370.641,1330.957z M1390.789,1327.772L1390.789,1327.772
		c9.286-20.99,29.213-19.968,12.274-2.044l-7.117,5.063c-1.51,6.749-4.195,10.927-7.083,5.531L1390.789,1327.772z
		 M1709.612,1524.501L1709.612,1524.501c12.738-15.208,3.937-29.475-3.274-9.822l-1.121,7.233c-4.707,3.789-6.926,7.478-1.571,7.409
		L1709.612,1524.501z M1720.063,1334.729L1720.063,1334.729c-9.209-20.968-29.13-19.944-12.226-2.021l7.083,5.015
		c1.495,6.781,4.145,10.963,7.025,5.585L1720.063,1334.729z M1703.403,1338.622L1703.403,1338.622
		c-9.222-20.926-29.155-19.927-12.238-2.045l7.069,5.062c1.521,6.756,4.195,10.944,7.058,5.562L1703.403,1338.622z
		 M1619.494,1336.774L1619.494,1336.774c-2.263-22.69-21.536-27.599-11.07-5.586l5.146,6.909c-0.682,6.881,0.522,11.623,4.949,7.402
		L1619.494,1336.774z M1595.758,1340.583L1595.758,1340.583c5.063-22.293-11.782-32.637-8.74-8.568l2.727,8.104
		c-2.783,6.352-3.136,11.271,2.42,8.496L1595.758,1340.583z M1577.527,1341.011L1577.527,1341.011
		c3.225-22.584-14.371-31.663-9.413-7.873l3.368,7.873c-2.338,6.558-2.262,11.448,3.076,8.257L1577.527,1341.011z
		 M1587.834,1378.316L1587.834,1378.316l15.786,4.063l7.347,4.088l-0.051,35.553l-12.59-18.275L1587.834,1378.316z
		 M1686.992,1495.223L1686.992,1495.223l-20.92-0.909l-2.215,9.025l1.693,21.489l6.604-9.175L1686.992,1495.223z M1653.953,1382.623
		L1653.953,1382.623c26.689-1.045,44.963,11.276,48.797,38.951l-0.047,14.912c-0.32,6.085-7.453,11.317-13.744,0.845
		c-3.381-20.343-13.611-30.711-30.779-31.163L1653.953,1382.623z M1709.612,1399.205L1709.612,1399.205l5.91,33.991l5.329-3.34
		l-0.924-35.636l8.459,32.392l2.114-29.302l6.536,1.895l-0.148,93.66l-5.982-10.077l-6.887,21.673
		c-3.287-14.942-0.497-42.296-9.798-44.814L1709.612,1399.205z M1552.234,1224.346L1552.234,1224.346l-5.989-2.471l-9.539,63.786
		c3.104,24.335,7.132,12.994,9.433,0.824L1552.234,1224.346z M1400.794,1457.698L1400.794,1457.698
		c4.449-2.116,10.694,1.354,13.926,7.717c3.191,6.328,2.217,13.238-2.258,15.353c-4.444,2.121-10.7-1.348-13.932-7.723
		C1395.34,1466.729,1396.337,1459.777,1400.794,1457.698 M1419.034,1487.047L1419.034,1487.047c3.292,0,5.983,2.604,5.97,5.818
		c0,3.188-2.679,5.803-5.989,5.803c-3.309,0-5.995-2.614-5.995-5.803C1413.021,1489.65,1415.707,1487.047,1419.034,1487.047
		 M1437.405,1512.706L1437.405,1512.706c3.042,0,5.56,2.847,5.56,6.233c0,3.419-2.518,6.215-5.583,6.215
		c-3.066,0-5.549-2.796-5.549-6.215C1431.832,1515.553,1434.327,1512.706,1437.405,1512.706 M1422.682,1340.338
		c2.822,0,5.133,3.368,5.133,7.487c0,4.087-2.311,7.468-5.158,7.468c-2.809,0-5.133-3.381-5.133-7.468
		C1417.524,1343.706,1419.859,1340.338,1422.682,1340.338"/>
	<path class="st2" d="M1518.318,1710.554L1518.318,1710.554h-0.672v0.619h-10.4l-0.086,63.634l-11.133-8.006l0.048-15.887
		l-2.127,1.021l-5.438,2.127l-4.419,0.572l-2.104-0.107l-1.997-0.295l-1.912-0.521l-1.836-0.704l-1.812-0.942l-1.706-1.068
		l-1.615-1.301l-1.593-1.521l-0.391-0.428l-0.269-0.377l-0.278-0.415l-0.267-0.371l-0.28-0.452l-0.267-0.405l-0.209-0.399
		l-0.22-0.414l-2.068-3.602l-0.327-1.118l-0.244-1.018l-0.22-1l-0.184-1.049l-0.13-1.024l-0.113-1.047l-0.024-1.021l-0.036-1.068
		l0.154-2.372l0.529-2.241l0.837-2.067l1.141-1.879l1.521-1.715l1.831-1.468l2.104-1.301l2.382-1.078l0.815-0.313l1.01-0.277
		l1.181-0.257l1.337-0.265l1.521-0.282l1.741-0.265l1.89-0.257l2.151-0.271h5.442l4.539,7.082l0.013-12.568h-41.375l-0.108,63.709
		l-10.842-8.213l0.047-25.552h-17.676v3.796l-0.054,0.813l-0.13,0.833l-0.291,0.741l-0.429,0.704l-0.534,0.571l-0.707,0.472
		l-0.767,0.346l-0.938,0.207l-1.302-0.101l-1.199-0.282l-1.183-0.449l-1.207-0.619l-1.229-0.779l-1.243-0.975l-1.254-1.068
		l-1.313-1.219l-0.19-0.22l-0.195-0.229l-0.232-0.268l-0.244-0.257l-0.244-0.327l-0.256-0.314l-0.231-0.333l-0.267-0.37
		l-0.292-0.396l-0.22-0.349l-0.254-0.305l-0.208-0.364l-0.232-0.353l-0.196-0.282l-0.19-0.265l-0.207-0.279l-0.303-0.499
		l-0.256-0.522l-0.254-0.521l-0.173-0.503l-0.184-0.521l-0.12-0.527l-0.071-0.521l-0.03-0.525l0.054-0.788l0.177-0.754l0.31-0.698
		l0.457-0.628l0.6-0.521l0.69-0.44l0.743-0.258l0.902-0.267h3.648l0.053-19.528h-16.587l-0.107,63.685l-10.991-8.188l0.035-18.4
		l-0.12,0.075l-0.415,0.309l-0.476,0.289l-0.48,0.276l-0.53,0.282l-0.628,0.32l-0.619,0.277l-2.121,0.948l-2.021,0.598h-0.51h-0.244
		l-0.208,0.024l-0.179,0.025l-0.147,0.022l-0.072,0.047h-0.071l-0.32,0.15l-2.3,0.129l-1.23-0.021l-1.2-0.063l-1.122-0.119
		l-1.117-0.17l-1.07-0.207l-1.064-0.22l-1.021-0.302l-0.987-0.34l-0.98-0.452l-0.963-0.452l-0.974-0.521l-0.94-0.598l-0.92-0.679
		l-0.951-0.747l-0.903-0.776l-0.985-0.89l-0.666-0.779l-0.647-0.816l-0.696-0.823l-0.665-0.927l-0.647-0.996l-0.689-1.05
		l-0.671-1.115l-0.743-1.229l-0.487-1.393l-0.327-1.222l-0.292-1.319l-0.267-1.251l-0.208-1.316l-0.077-0.996h-13.101h-0.314
		l-0.273,0.075l-0.256,0.047l-0.226,0.098l-0.208,0.145l-0.256,0.157l-0.195,0.22l-0.173,0.17l-1.29,2.395l-0.463,3.374l0.077,2.046
		l0.292,2.266l0.475,2.243l0.689,2.388l0.88,2.47l1.117,2.545l1.252,2.59l1.499,2.727l2.632,4.381l5.399,7.107l-7.533,4.417
		l-1.241-0.672l-0.594-0.402l-0.583-0.496l-0.511-0.547l-0.511-0.647l-0.529-0.704l-0.457-0.816l-0.464-0.805l-4.831-9.477
		l-0.28-0.641l-0.267-0.647l-0.297-0.697l-0.338-0.729l-0.292-0.816l-0.361-0.799l-0.333-0.873l-0.374-0.93l-0.346-0.937
		l-0.327-0.905l-0.351-0.873l-0.356-0.874l-0.291-0.842l-0.303-0.779l-0.267-0.767l-0.303-0.802l-0.404-1.301l-0.387-1.313
		l-0.32-1.354l-0.327-1.339l-0.256-1.326l-0.291-1.401l-0.244-1.345l-0.209-1.521l0.013-1.22l0.072-1.118l0.208-1.068l0.207-1.024
		l0.316-0.996l0.344-0.927l0.421-0.849l0.453-0.767l1.123-2.023l0.712-0.924l0.732-0.804l0.825-0.742l0.916-0.647l0.974-0.546
		l1.07-0.497l1.111-0.326l1.253-0.258h23.712l-0.023,6.667l2.275-0.679l0.559-0.273l0.522-0.373l0.487-0.479l0.453-0.521
		l0.451-0.571l0.351-0.729l0.352-0.767l0.254-0.729l0.256-2.545l-0.13-3.089v-0.418v-0.302l-0.049-0.232l-0.011-0.242v-0.072
		l-0.126-0.126l-0.107-0.603l-0.06-0.245l-0.041-0.195l-0.072-0.157l-0.047-0.101l-0.694-1.043h-47.246l-0.077,63.624l-11.241-7.996
		l0.023-27.657l-2.044,0.949l-0.814,0.232l-0.73,0.151l-0.719,0.163l-0.718,0.126l-0.701,0.081l-0.719,0.051l-0.731,0.025
		l-0.719,0.05h-2.091l-0.767-0.126l-0.718-0.182l-0.779-0.188l-0.837-0.232l-0.915-0.293l-0.916-0.354l-1.021-0.377l-1.243-0.497
		l-3.731-2.809l-0.522-0.66l-0.102,0.082l-0.094,0.125l-2.021,3.369l-3.167,3.211l-1.812,1.27l3.285,5.033l4.492,6.693l5.109,7.129
		l2.58,2.737l4.409,4.442l-9.37,4.663l-4.865-7.535l-3.774-5.781l-5.513-7.711l-2.982-4.43l-1.45-2.42l-1.277-2.351l-1.141-2.262
		l-1.023-2.225l-0.837-2.193l-0.719-2.118l-0.522-2.067l-0.405-2.193l0.186-1.577l0.594-1.392l0.124-0.279l0.267-0.374l0.303-0.368
		l0.327-0.251l0.38-0.271l0.387-0.201l0.451-0.245l0.756-0.358h8.52v-14.233h-17.706l0.023-10.099h186.337l-12.262-15.038
		l-0.149-0.198l-0.124-0.097l-0.12-0.145l-0.184-0.132l-0.12-0.126l-0.184-0.095l-0.231-0.15l-0.072-0.022l-2.495-0.43h-13.552
		l-6.012-12.066h20.378l2.864,0.478l0.665,0.164h0.113l0.244,0.057l0.352,0.068l0.291,0.051l0.254,0.081l0.28,0.151l0.28,0.22
		l0.291,0.208l4.628,6.202l5.158,7.358l1.883,2.438l1.609,2.47l1.873,2.589l1.716,2.722l2.127,3.242h64.869L1518.318,1710.554z
		 M1496.086,1727.311L1496.086,1727.311l-4.853-0.258h-2.8l-0.374,0.025h-0.368l-0.352,0.022l-0.391,0.085l-0.363,0.068
		l-0.417,0.076l-0.385,0.145l-0.6,0.173l-1.747,0.21l-1.438,0.289l-1.313,0.402l-1.301,0.521l-1.183,0.653l-1.104,0.748
		l-1.087,0.898l-0.922,0.924l-0.053,0.101l-0.095,0.17l-0.119,0.157l-0.124,0.194l-0.184,0.377l-0.083,0.17l-0.107,0.245
		l-0.162,0.327l-0.125,0.427l-0.106,0.353l-0.12,0.439l-0.101,0.327l-0.047,0.402l-0.013,0.373v0.368l0.013,0.93l0.083,0.874
		l0.196,0.798l0.219,0.792l0.327,0.754l0.333,0.741l0.399,0.698l0.498,0.628l0.072,0.075l0.171,0.17l0.22,0.183l0.256,0.194
		l0.363,0.22l0.404,0.233l0.417,0.27l0.327,0.129l0.374,0.147l0.564,0.12l0.57,0.125l0.523,0.069l0.558,0.038l0.56,0.047
		l0.523,0.047h0.564h0.618l0.559-0.047l0.624-0.047l0.547-0.107l0.534-0.101l0.57-0.094l0.534-0.198l0.512-0.154l0.534-0.22
		l0.564-0.258l0.583-0.295l0.671-0.352l0.689-0.396l0.707-0.499l0.754-0.525l0.837-0.571l0.589-0.377l0.523-0.415l0.498-0.352
		l0.399-0.327l0.38-0.346l0.314-0.276l0.22-0.283l0.231-0.313l0.91-1.169V1727.311z M1710.254,1673.217L1710.254,1673.217h0.047
		l0.285,0.057l0.336,0.068l0.283,0.051l0.255,0.081l0.292,0.151l0.277,0.22l0.27,0.208l4.638,6.202l5.172,7.358l1.911,2.438
		l1.57,2.47l1.869,2.589l1.729,2.722l2.14,3.242h12.364l-0.047,9.479h-0.672v0.619h-10.219l-0.107,63.357l-10.99-7.13l0.047-37.406
		h-20.527h-0.238l-0.208,0.054l-0.245,0.021l-0.254,0.051l-0.268,0.081l-0.258,0.095l-0.32,0.078l-0.094,0.048l-1.653,1.495
		l-1.075,2.118l-0.37,2.922v0.421l0.022,0.521v0.503l0.034,0.521l0.072,0.528l0.079,0.521l0.043,0.503l0.119,0.521l0.079,0.521
		l0.129,0.499l0.151,0.547l0.166,0.525l0.186,0.546l0.17,0.547l0.244,0.598l0.232,0.571l0.569,1.275l0.644,1.289l0.648,1.257
		l0.754,1.193l0.754,1.15l0.836,1.172l0.879,1.115l0.922,1.125l3.264,3.52l7.227,6.479l-8.32,3.821l-1.193-0.396l-0.686-0.311
		l-0.666-0.399l-0.646-0.471l-0.572-0.528l-0.557-0.565l-0.547-0.697l-0.499-0.698l-5.876-8.553l-1.1-1.603l-0.999-1.618
		l-0.917-1.521l-0.881-1.568l-0.816-1.552l-0.703-1.521l-0.666-1.465l-0.579-1.502l-0.521-1.445l-0.452-1.363l-0.352-1.352
		l-0.303-1.269l-0.267-1.251l-0.147-1.169l-0.107-1.144l-0.05-1.056v-1.194l0.072-1.074l0.16-1.091l0.167-0.952l0.232-0.924
		l0.267-0.873l0.358-0.817l0.396-0.754l1.414-2.215l1.777-2.09l2.09-1.646l2.165-1.105h26.61v-7.824h-43.867l-0.119,63.685
		l-10.973-8.188l0.048-18.4l-0.147,0.075l-0.396,0.309l-0.478,0.289l-0.474,0.276l-0.572,0.282l-0.601,0.32l-0.641,0.277
		l-2.093,0.948l-2.018,0.598h-0.502h-0.283l-0.188,0.024l-0.198,0.025l-0.135,0.022l-0.072,0.047h-0.072l-0.302,0.15l-2.313,0.129
		l-1.206-0.021l-1.22-0.063l-1.144-0.119l-1.094-0.17l-1.081-0.207l-1.046-0.22l-1.021-0.302l-0.999-0.34l-0.999-0.452l-0.962-0.452
		l-0.974-0.521l-0.921-0.598l-0.927-0.679l-0.949-0.747l-0.898-0.776l-0.927-0.89l-0.72-0.779l-0.666-0.816l-0.647-0.823
		l-0.685-0.927l-0.663-0.996l-0.683-1.05l-0.697-1.115l-0.694-1.229l-0.468-1.393l-0.383-1.222l-0.303-1.319l-0.267-1.251
		l-0.198-1.316l-0.129-1.304l-0.078-1.302l-0.044-2.714h6.558l3.113-0.943l0.547-0.273l0.521-0.373l0.5-0.479l0.449-0.521
		l0.405-0.571l0.425-0.729l0.32-0.767l0.254-0.729l0.268-2.545l-0.126-3.089v-0.418l-0.025-0.302l-0.022-0.232l-0.021-0.242v-0.072
		l-0.119-0.126l-0.126-0.603l-0.06-0.245l-0.021-0.195l-0.051-0.157l-0.051-0.101h-0.05l-0.642-1.043h-21.548l-0.079,63.357
		l-10.996-7.729l0.059-36.807H1598.8l1.593,2.57l1.154,3.896l0.377,3.827l-0.01,1.426l-0.173,1.377l-0.22,1.301l-0.353,1.313
		l-0.474,1.275l-0.522,1.219l-0.644,1.238l-0.754,1.206l-0.475,0.623l-0.475,0.597l-0.521,0.571l-0.578,0.522l-0.572,0.452
		l-0.641,0.452l-0.623,0.396l-0.779,0.401l-0.801,0.195l-0.672,0.207l-0.701,0.126l-0.66,0.163l-0.646,0.126l-0.68,0.106
		l-0.646,0.101l-0.754,0.12l-1.396-0.095l-1.345-0.207l-1.313-0.314l-1.301-0.431l-1.237-0.625l-1.245-0.676l-1.188-0.845
		l-1.156-0.918l-1.22-1.05l-1.244-1.193l-1.175-1.301l-1.147-1.37l-1.08-1.496l-1.047-1.624l-0.986-1.719l-0.949-1.747l-2.973-6.033
		l-3.72-10.199l9.27-4.907l0.056,2.96v0.559l0.045,0.598l0.037,0.571l0.038,0.572l0.057,0.521l0.06,0.478l0.066,0.496l0.081,0.478
		l0.072,0.446l0.126,0.453l0.107,0.439l0.1,0.377l0.119,0.377l0.148,0.371l0.166,0.431l1.621,5.062l0.447,1.288l0.499,1.22
		l0.575,1.149l0.631,1.078l0.695,0.996l0.754,0.949l0.813,0.911l0.88,0.848l0.779,0.578l0.823,0.572l0.804,0.427l0.85,0.374
		l0.879,0.28l0.905,0.169l0.908,0.145l0.849,0.057l1.611-0.346l1.615-0.829l0.254-0.22l0.293-0.371l0.308-0.452l0.292-0.572
		l0.242-0.659l0.232-0.717l0.201-0.898l0.15-0.867v-0.701l-0.059-0.845l-0.092-0.729l-0.129-0.767l-0.135-0.754l-0.221-0.697
		l-0.238-0.698l-0.245-0.697l-0.32-0.694l-0.374-0.676l-0.381-0.723l-0.465-0.729l-0.521-0.767l-0.547-0.779l-0.615-0.742
		l-0.572-0.729l-2.228-2.046l-0.241-0.267l-0.246-0.207l-0.404-0.34l-0.488-0.402l-0.628-0.524l-0.72-0.547l-0.839-0.625
		l-4.305-3.148l33.847-0.147v-8.198h-49.695v-10.099h160.376l-12.271-15.038l-0.131-0.198l-0.123-0.097l-0.119-0.145l-0.174-0.132
		l-0.153-0.126l-0.173-0.095l-0.22-0.15l-0.057-0.022l-2.507-0.43h-13.543l-6.036-12.066h20.414l2.821,0.478L1710.254,1673.217z
		 M1305.708,1711.173L1305.708,1711.173h-19.648l-0.023,17.376l1.241,0.898l2.371,0.805l2.204,0.597h2.995l0.779-0.025l0.73-0.101
		l0.767-0.031l0.754-0.119l0.726-0.198l0.73-0.197l0.754-0.252l0.777-0.308l0.536-0.17l0.552-0.267l0.619-0.305l0.605-0.378
		l0.708-0.401l0.73-0.497l0.778-0.597l0.291-0.195L1305.708,1711.173z M1372.442,1711.173L1372.442,1711.173l0.777,1.564
		l1.664,4.041l0.576,3.777l-0.041,1.482l-0.179,1.401l-0.267,1.352l-0.356,1.313l-0.475,1.301l-0.57,1.237l-0.684,1.185l-0.79,1.141
		l-0.35,0.497l-0.417,0.452l-0.446,0.402l-0.463,0.449l-0.523,0.393l-0.564,0.353l-0.581,0.352l-0.672,0.377l-2.245,0.813
		l-2.157,0.827l-1.918,0.22l0.48,0.88l0.695,0.767l0.867,0.823l0.946,0.741l1.087,0.638l1.265,0.493l1.384,0.402l1.546,0.296
		l1.717,0.207l1.858,0.044h0.416l0.374-0.021h0.357l0.292-0.022l0.254-0.038l0.208-0.024l0.196-0.044l0.167-0.051l2.531-0.716
		l2.359-1.125l2.643-1.628l2.764-2.457l1.177-1.376l0.053-22.718H1372.442z M1443.892,1730.701L1443.892,1730.701v-19.528h-17.645
		l-0.023,19.528H1443.892z M1651.863,1711.173l0.754,1.564l1.717,4.041l0.546,3.777l-0.047,1.482l-0.173,1.401l-0.232,1.352
		l-0.374,1.313l-0.475,1.301l-0.578,1.237l-0.688,1.185l-0.754,1.141l-0.393,0.497l-0.396,0.452l-0.451,0.402l-0.479,0.449
		l-0.496,0.393l-0.572,0.353l-0.571,0.352l-0.704,0.377l-2.219,0.813l-2.168,0.827l-1.941,0.22l0.547,0.88l0.641,0.767l0.88,0.823
		l0.949,0.741l1.093,0.638l1.267,0.493l1.373,0.402l1.546,0.296l1.703,0.207l1.892,0.044h0.396l0.381-0.021h0.326l0.318-0.022
		l0.254-0.038l0.22-0.024l0.194-0.044l0.133-0.051l2.542-0.716l2.388-1.125l2.58-1.628l2.809-2.457l1.219-1.376l0.035-22.718
		H1651.863z"/>
	<path class="st0" d="M1712.768,2012.525c-5.867,0-15.758-2.168-24.701-5.536l-12.047-20.402c3.41,0.327,8.045,1.279,12.352,1.279
		c7.105,0,10.486-4.028,10.486-15.164v-58.644h-42.902v81.493c0,7.422,2.162,15.139,25.928,29.643l69.164,41.991
		c7.724,4.638,13.58,11.741,13.58,20.077c0,7.096-7.415,19.136-12.047,23.78l-25.613-18.552c2.154-3.079,4.926-9.859,4.926-12.348
		c0-4.606-2.771-9.251-8.016-12.641c-8.021-5.257-79.033-46.626-84.896-50.642c-9.589-6.504-11.437-12.034-11.437-18.218v-84.585
		h-22.222l-15.439-25.936h162.405l15.443,25.936h-40.476v78.734C1727.256,2008.522,1722.648,2012.525,1712.768,2012.525"/>
	<path class="st0" d="M1811.529,2011.294c0,4.329-3.088,6.812-8.041,6.812c-8.311,0-37.014-29.347-37.014-40.457
		c0-3.382,2.766-6.781,7.714-6.781h8.939v-56.809h-30.874l-15.432-25.929h167.346l15.428,25.929h-30.871v139.22l-29.325-19.438
		l1.533-36.423h-49.403V2011.294z M1811.529,1971.477h48.784v-57.418h-48.784V1971.477z"/>
	<path class="st0" d="M1065.567,2012.525c-5.852,0-15.756-2.168-24.705-5.536l-12.042-20.402c3.405,0.327,8.044,1.279,12.363,1.279
		c7.095,0,10.487-4.028,10.487-15.164v-58.644h-42.914v81.493c0,7.422,2.162,15.139,25.94,29.643l69.151,41.991
		c7.71,4.638,13.592,11.741,13.592,20.077c0,7.096-7.426,19.136-12.061,23.78l-25.613-18.552c2.163-3.079,4.925-9.859,4.925-12.348
		c0-4.606-2.762-9.251-8.003-12.641c-8.043-5.257-79.042-46.626-84.907-50.642c-9.577-6.504-11.424-12.034-11.424-18.218v-84.585
		h-22.234l-15.44-25.936h162.393l15.454,25.936h-40.46v78.734C1080.07,2008.522,1075.448,2012.525,1065.567,2012.525"/>
	<path class="st0" d="M1164.336,2011.294c0,4.329-3.078,6.812-8.028,6.812c-8.334,0-37.05-29.347-37.05-40.457
		c0-3.382,2.787-6.781,7.725-6.781h8.953v-56.809h-30.865l-15.455-25.929h167.333l15.44,25.929h-30.846v139.22l-29.363-19.438
		l1.544-36.423h-49.389V2011.294z M1164.336,1971.477h48.784v-57.418h-48.784V1971.477z"/>
	<path class="st0" d="M1378.805,2012.525c-5.853,0-15.744-2.168-24.697-5.536l-12.061-20.402c3.415,0.327,8.056,1.279,12.364,1.279
		c7.104,0,10.498-4.028,10.498-15.164v-58.644h-42.915v81.493c0,7.422,2.164,15.139,25.94,29.643l69.151,41.991
		c7.712,4.638,13.594,11.741,13.594,20.077c0,7.096-7.426,19.136-12.05,23.78l-25.613-18.552c2.17-3.079,4.925-9.859,4.925-12.348
		c0-4.606-2.755-9.251-8.026-12.641c-8.033-5.257-79.032-46.626-84.907-50.642c-9.565-6.504-11.401-12.034-11.401-18.218v-84.585
		h-22.245l-15.429-25.936h162.395l15.44,25.936h-40.459v78.734C1393.309,2008.522,1388.685,2012.525,1378.805,2012.525"/>
	<path class="st0" d="M1518.324,1997.098c-10.789,0-20.367-8.339-28.411-15.422c-6.168,10.168-15.429,16.974-21.307,21.9
		c12.364,17.608,24.408,29.649,40.762,46.94l-12.035,11.11l-51.25-67.298c-5.241-7.116-13.575-20.688-13.575-29.023
		c0-5.876,6.48-10.796,11.728-10.796c6.469,0,13.592,8.948,16.973,8.948c0.94,0,1.546-1.546,1.546-3.714v-45.686h-44.769
		l-15.423-25.929h187.08l15.434,25.929h-30.861v139.22l-29.354-19.438l1.559-42.588
		C1536.529,1996.481,1528.828,1997.098,1518.324,1997.098 M1491.155,1914.059v54.013c8.954,2.796,14.833,3.098,22.862,3.098
		c4.931,0,29.315-5.863,31.788-9.577v-47.533H1491.155z"/>
	<path class="st0" d="M1968.766,2064.348c-3.088-4.32-6.803-5.281-12.352-5.57c-5.561-0.296-14.817-4.638-17.592-10.188
		c-1.543-3.079-1.543-13.906-1.543-21.001c0-5.235,4.619-10.162,9.904-10.162c7.082,0,12.016,3.686,16.652,16.659
		c30.252-1.25,47.846-23.182,47.846-31.182c0-2.464-1.557-4.946-5.242-4.946c-5.27,0-22.23,8.34-33.365,8.34
		c-15.732,0-38.271-29.341-38.271-49.093c0-17.287,9.58-25.62,19.139-25.62h43.236v-17.583h-77.814l-15.428-25.951h137.07
		l15.44,25.951h-32.728v34.852c0,4.952-2.168,7.422-5.26,7.422h-50.619c-7.41,0.327-13.273,7.095-13.273,15.12
		c0,7.12,2.775,8.986,5.863,8.986c2.471,0,33.658-8.364,39.823-8.364c8.955,0,12.971,1.86,16.063,6.192
		c9.275,13.571,16.986,29.313,16.986,38.891c0,13.913-25.627,37.984-53.718,40.765l23.434,37.668l-12.643,7.698
		C1982.965,2089.645,1972.156,2068.97,1968.766,2064.348"/>
	<path class="st0" d="M1981.705,1841.441c0-17.913,13.898-30.262,29.97-30.262c13.266,0,26.224,9.564,30.236,42.004l-11.104,3.374
		c-3.098-13.888-7.107-19.437-13.605-19.437c-9.253,0-13.888,4.933-13.888,15.431c0,6.79,5.562,25.008,13.291,37.979h-13.291
		C1994.371,1877.239,1981.705,1853.78,1981.705,1841.441"/>
	<rect x="1035.711" y="2145.637" class="st0" width="62.349" height="186.666"/>
	<path class="st0" d="M1009.314,2145.637v214.933h-64.041l-1.616-156.263C944.923,2169.718,970.363,2152.731,1009.314,2145.637"/>
	<path class="st0" d="M1120.381,2145.637v214.933h64.042l1.64-156.263C1184.774,2169.718,1159.332,2152.731,1120.381,2145.637"/>
	<rect x="1613.523" y="2145.637" class="st0" width="62.346" height="186.666"/>
	<path class="st0" d="M1590.611,2145.637v214.933h-67.42l-1.73-156.263C1522.83,2169.718,1549.595,2152.731,1590.611,2145.637"/>
	<path class="st0" d="M1703.998,2145.637v214.933h62.395l1.581-156.263C1766.707,2169.718,1741.926,2152.731,1703.998,2145.637"/>
	<path class="st0" d="M1810.729,2213.299h247.883v-61.412l-180.209-1.568C1838.498,2151.569,1818.904,2175.945,1810.729,2213.299"/>
	<rect x="1813.782" y="2230.882" class="st0" width="180.086" height="51.273"/>
	<path class="st0" d="M1813.719,2303.295h244.6v51.272l-177.848,1.301C1841.112,2354.851,1821.775,2334.483,1813.719,2303.295"/>
	<path class="st0" d="M1228.882,2212.262h251.751v-63.067l-183.017-1.628C1257.073,2148.845,1237.193,2173.897,1228.882,2212.262"/>
	<path class="st0" d="M1484.109,2306.041h-255.222v51.285l185.536,1.301C1455.514,2357.594,1475.726,2337.261,1484.109,2306.041"/>
	<path class="st0" d="M1225.412,2231.07l201.315,0.745c34.299,1.618,53.537,23.72,55.914,51.527l-196.283-0.252
		C1247.323,2281.658,1228.686,2262.869,1225.412,2231.07"/>
	<rect x="943.366" y="2115.359" class="st0" width="1110.117" height="12.167"/>
</g>
</svg>
